<?xml version="1.0" encoding="utf-8" standalone="no"?>
<!DOCTYPE svg PUBLIC "-//W3C//DTD SVG 1.1//EN"
  "http://www.w3.org/Graphics/SVG/1.1/DTD/svg11.dtd">
<!-- Created with matplotlib (https://matplotlib.org/) -->
<svg height="676.8pt" version="1.1" viewBox="0 0 432 676.8" width="432pt" xmlns="http://www.w3.org/2000/svg" xmlns:xlink="http://www.w3.org/1999/xlink">
 <metadata>
  <rdf:RDF xmlns:cc="http://creativecommons.org/ns#" xmlns:dc="http://purl.org/dc/elements/1.1/" xmlns:rdf="http://www.w3.org/1999/02/22-rdf-syntax-ns#">
   <cc:Work>
    <dc:type rdf:resource="http://purl.org/dc/dcmitype/StillImage"/>
    <dc:date>2020-10-19T19:24:19.993698</dc:date>
    <dc:format>image/svg+xml</dc:format>
    <dc:creator>
     <cc:Agent>
      <dc:title>Matplotlib v3.3.2, https://matplotlib.org/</dc:title>
     </cc:Agent>
    </dc:creator>
   </cc:Work>
  </rdf:RDF>
 </metadata>
 <defs>
  <style type="text/css">*{stroke-linecap:butt;stroke-linejoin:round;}</style>
 </defs>
 <g id="figure_1">
  <g id="patch_1">
   <path d="M 0 676.8 
L 432 676.8 
L 432 0 
L 0 0 
z
" style="fill:#ffffff;"/>
  </g>
  <g id="axes_1">
   <g id="patch_2">
    <path d="M 123.074615 638.63601 
L 428.99976 638.63601 
L 428.99976 3.00024 
L 123.074615 3.00024 
z
" style="fill:#ffffff;"/>
   </g>
   <g id="matplotlib.axis_1">
    <g id="xtick_1">
     <g id="line2d_1">
      <path clip-path="url(#p784610aa3f)" d="M 148.568377 638.63601 
L 148.568377 3.00024 
" style="fill:none;stroke:#ffffff;stroke-linecap:round;stroke-width:2;"/>
     </g>
     <g id="line2d_2">
      <defs>
       <path d="M 0 0 
L 0 -3.5 
" id="ma940ef8871" style="stroke:#000000;stroke-width:0.8;"/>
      </defs>
      <g>
       <use style="stroke:#000000;stroke-width:0.8;" x="148.568377" xlink:href="#ma940ef8871" y="638.63601"/>
      </g>
     </g>
     <g id="line2d_3">
      <defs>
       <path d="M 0 0 
L 0 3.5 
" id="mbcf35bce57" style="stroke:#000000;stroke-width:0.8;"/>
      </defs>
      <g>
       <use style="stroke:#000000;stroke-width:0.8;" x="148.568377" xlink:href="#mbcf35bce57" y="3.00024"/>
      </g>
     </g>
     <g id="text_1">
      <!-- −1.0 -->
      <g transform="translate(133.99869 651.254135)scale(0.12 -0.12)">
       <defs>
        <path d="M 10.59375 35.5 
L 73.1875 35.5 
L 73.1875 27.203125 
L 10.59375 27.203125 
z
" id="DejaVuSans-8722"/>
        <path d="M 12.40625 8.296875 
L 28.515625 8.296875 
L 28.515625 63.921875 
L 10.984375 60.40625 
L 10.984375 69.390625 
L 28.421875 72.90625 
L 38.28125 72.90625 
L 38.28125 8.296875 
L 54.390625 8.296875 
L 54.390625 0 
L 12.40625 0 
z
" id="DejaVuSans-49"/>
        <path d="M 10.6875 12.40625 
L 21 12.40625 
L 21 0 
L 10.6875 0 
z
" id="DejaVuSans-46"/>
        <path d="M 31.78125 66.40625 
Q 24.171875 66.40625 20.328125 58.90625 
Q 16.5 51.421875 16.5 36.375 
Q 16.5 21.390625 20.328125 13.890625 
Q 24.171875 6.390625 31.78125 6.390625 
Q 39.453125 6.390625 43.28125 13.890625 
Q 47.125 21.390625 47.125 36.375 
Q 47.125 51.421875 43.28125 58.90625 
Q 39.453125 66.40625 31.78125 66.40625 
z
M 31.78125 74.21875 
Q 44.046875 74.21875 50.515625 64.515625 
Q 56.984375 54.828125 56.984375 36.375 
Q 56.984375 17.96875 50.515625 8.265625 
Q 44.046875 -1.421875 31.78125 -1.421875 
Q 19.53125 -1.421875 13.0625 8.265625 
Q 6.59375 17.96875 6.59375 36.375 
Q 6.59375 54.828125 13.0625 64.515625 
Q 19.53125 74.21875 31.78125 74.21875 
z
" id="DejaVuSans-48"/>
       </defs>
       <use xlink:href="#DejaVuSans-8722"/>
       <use x="83.789062" xlink:href="#DejaVuSans-49"/>
       <use x="147.412109" xlink:href="#DejaVuSans-46"/>
       <use x="179.199219" xlink:href="#DejaVuSans-48"/>
      </g>
     </g>
    </g>
    <g id="xtick_2">
     <g id="line2d_4">
      <path clip-path="url(#p784610aa3f)" d="M 199.555901 638.63601 
L 199.555901 3.00024 
" style="fill:none;stroke:#ffffff;stroke-linecap:round;stroke-width:2;"/>
     </g>
     <g id="line2d_5">
      <g>
       <use style="stroke:#000000;stroke-width:0.8;" x="199.555901" xlink:href="#ma940ef8871" y="638.63601"/>
      </g>
     </g>
     <g id="line2d_6">
      <g>
       <use style="stroke:#000000;stroke-width:0.8;" x="199.555901" xlink:href="#mbcf35bce57" y="3.00024"/>
      </g>
     </g>
     <g id="text_2">
      <!-- −0.5 -->
      <g transform="translate(184.986214 651.254135)scale(0.12 -0.12)">
       <defs>
        <path d="M 10.796875 72.90625 
L 49.515625 72.90625 
L 49.515625 64.59375 
L 19.828125 64.59375 
L 19.828125 46.734375 
Q 21.96875 47.46875 24.109375 47.828125 
Q 26.265625 48.1875 28.421875 48.1875 
Q 40.625 48.1875 47.75 41.5 
Q 54.890625 34.8125 54.890625 23.390625 
Q 54.890625 11.625 47.5625 5.09375 
Q 40.234375 -1.421875 26.90625 -1.421875 
Q 22.3125 -1.421875 17.546875 -0.640625 
Q 12.796875 0.140625 7.71875 1.703125 
L 7.71875 11.625 
Q 12.109375 9.234375 16.796875 8.0625 
Q 21.484375 6.890625 26.703125 6.890625 
Q 35.15625 6.890625 40.078125 11.328125 
Q 45.015625 15.765625 45.015625 23.390625 
Q 45.015625 31 40.078125 35.4375 
Q 35.15625 39.890625 26.703125 39.890625 
Q 22.75 39.890625 18.8125 39.015625 
Q 14.890625 38.140625 10.796875 36.28125 
z
" id="DejaVuSans-53"/>
       </defs>
       <use xlink:href="#DejaVuSans-8722"/>
       <use x="83.789062" xlink:href="#DejaVuSans-48"/>
       <use x="147.412109" xlink:href="#DejaVuSans-46"/>
       <use x="179.199219" xlink:href="#DejaVuSans-53"/>
      </g>
     </g>
    </g>
    <g id="xtick_3">
     <g id="line2d_7">
      <path clip-path="url(#p784610aa3f)" d="M 250.543425 638.63601 
L 250.543425 3.00024 
" style="fill:none;stroke:#ffffff;stroke-linecap:round;stroke-width:2;"/>
     </g>
     <g id="line2d_8">
      <g>
       <use style="stroke:#000000;stroke-width:0.8;" x="250.543425" xlink:href="#ma940ef8871" y="638.63601"/>
      </g>
     </g>
     <g id="line2d_9">
      <g>
       <use style="stroke:#000000;stroke-width:0.8;" x="250.543425" xlink:href="#mbcf35bce57" y="3.00024"/>
      </g>
     </g>
     <g id="text_3">
      <!-- 0.0 -->
      <g transform="translate(241.00155 651.254135)scale(0.12 -0.12)">
       <use xlink:href="#DejaVuSans-48"/>
       <use x="63.623047" xlink:href="#DejaVuSans-46"/>
       <use x="95.410156" xlink:href="#DejaVuSans-48"/>
      </g>
     </g>
    </g>
    <g id="xtick_4">
     <g id="line2d_10">
      <path clip-path="url(#p784610aa3f)" d="M 301.53095 638.63601 
L 301.53095 3.00024 
" style="fill:none;stroke:#ffffff;stroke-linecap:round;stroke-width:2;"/>
     </g>
     <g id="line2d_11">
      <g>
       <use style="stroke:#000000;stroke-width:0.8;" x="301.53095" xlink:href="#ma940ef8871" y="638.63601"/>
      </g>
     </g>
     <g id="line2d_12">
      <g>
       <use style="stroke:#000000;stroke-width:0.8;" x="301.53095" xlink:href="#mbcf35bce57" y="3.00024"/>
      </g>
     </g>
     <g id="text_4">
      <!-- 0.5 -->
      <g transform="translate(291.989075 651.254135)scale(0.12 -0.12)">
       <use xlink:href="#DejaVuSans-48"/>
       <use x="63.623047" xlink:href="#DejaVuSans-46"/>
       <use x="95.410156" xlink:href="#DejaVuSans-53"/>
      </g>
     </g>
    </g>
    <g id="xtick_5">
     <g id="line2d_13">
      <path clip-path="url(#p784610aa3f)" d="M 352.518474 638.63601 
L 352.518474 3.00024 
" style="fill:none;stroke:#ffffff;stroke-linecap:round;stroke-width:2;"/>
     </g>
     <g id="line2d_14">
      <g>
       <use style="stroke:#000000;stroke-width:0.8;" x="352.518474" xlink:href="#ma940ef8871" y="638.63601"/>
      </g>
     </g>
     <g id="line2d_15">
      <g>
       <use style="stroke:#000000;stroke-width:0.8;" x="352.518474" xlink:href="#mbcf35bce57" y="3.00024"/>
      </g>
     </g>
     <g id="text_5">
      <!-- 1.0 -->
      <g transform="translate(342.976599 651.254135)scale(0.12 -0.12)">
       <use xlink:href="#DejaVuSans-49"/>
       <use x="63.623047" xlink:href="#DejaVuSans-46"/>
       <use x="95.410156" xlink:href="#DejaVuSans-48"/>
      </g>
     </g>
    </g>
    <g id="xtick_6">
     <g id="line2d_16">
      <path clip-path="url(#p784610aa3f)" d="M 403.505998 638.63601 
L 403.505998 3.00024 
" style="fill:none;stroke:#ffffff;stroke-linecap:round;stroke-width:2;"/>
     </g>
     <g id="line2d_17">
      <g>
       <use style="stroke:#000000;stroke-width:0.8;" x="403.505998" xlink:href="#ma940ef8871" y="638.63601"/>
      </g>
     </g>
     <g id="line2d_18">
      <g>
       <use style="stroke:#000000;stroke-width:0.8;" x="403.505998" xlink:href="#mbcf35bce57" y="3.00024"/>
      </g>
     </g>
     <g id="text_6">
      <!-- 1.5 -->
      <g transform="translate(393.964123 651.254135)scale(0.12 -0.12)">
       <use xlink:href="#DejaVuSans-49"/>
       <use x="63.623047" xlink:href="#DejaVuSans-46"/>
       <use x="95.410156" xlink:href="#DejaVuSans-53"/>
      </g>
     </g>
    </g>
    <g id="text_7">
     <!-- $\Delta$CS$_{sim}$-$\Delta$CS$_{exp}$  (C$_\alpha$, ppm) -->
     <g transform="translate(182.287188 669.14976)scale(0.15 -0.15)">
      <defs>
       <path d="M 34.1875 63.1875 
L 14.15625 8.203125 
L 54.25 8.203125 
z
M 0.78125 0 
L 28.609375 72.90625 
L 39.796875 72.90625 
L 67.578125 0 
z
" id="DejaVuSans-916"/>
       <path d="M 64.40625 67.28125 
L 64.40625 56.890625 
Q 59.421875 61.53125 53.78125 63.8125 
Q 48.140625 66.109375 41.796875 66.109375 
Q 29.296875 66.109375 22.65625 58.46875 
Q 16.015625 50.828125 16.015625 36.375 
Q 16.015625 21.96875 22.65625 14.328125 
Q 29.296875 6.6875 41.796875 6.6875 
Q 48.140625 6.6875 53.78125 8.984375 
Q 59.421875 11.28125 64.40625 15.921875 
L 64.40625 5.609375 
Q 59.234375 2.09375 53.4375 0.328125 
Q 47.65625 -1.421875 41.21875 -1.421875 
Q 24.65625 -1.421875 15.125 8.703125 
Q 5.609375 18.84375 5.609375 36.375 
Q 5.609375 53.953125 15.125 64.078125 
Q 24.65625 74.21875 41.21875 74.21875 
Q 47.75 74.21875 53.53125 72.484375 
Q 59.328125 70.75 64.40625 67.28125 
z
" id="DejaVuSans-67"/>
       <path d="M 53.515625 70.515625 
L 53.515625 60.890625 
Q 47.90625 63.578125 42.921875 64.890625 
Q 37.9375 66.21875 33.296875 66.21875 
Q 25.25 66.21875 20.875 63.09375 
Q 16.5 59.96875 16.5 54.203125 
Q 16.5 49.359375 19.40625 46.890625 
Q 22.3125 44.4375 30.421875 42.921875 
L 36.375 41.703125 
Q 47.40625 39.59375 52.65625 34.296875 
Q 57.90625 29 57.90625 20.125 
Q 57.90625 9.515625 50.796875 4.046875 
Q 43.703125 -1.421875 29.984375 -1.421875 
Q 24.8125 -1.421875 18.96875 -0.25 
Q 13.140625 0.921875 6.890625 3.21875 
L 6.890625 13.375 
Q 12.890625 10.015625 18.65625 8.296875 
Q 24.421875 6.59375 29.984375 6.59375 
Q 38.421875 6.59375 43.015625 9.90625 
Q 47.609375 13.234375 47.609375 19.390625 
Q 47.609375 24.75 44.3125 27.78125 
Q 41.015625 30.8125 33.5 32.328125 
L 27.484375 33.5 
Q 16.453125 35.6875 11.515625 40.375 
Q 6.59375 45.0625 6.59375 53.421875 
Q 6.59375 63.09375 13.40625 68.65625 
Q 20.21875 74.21875 32.171875 74.21875 
Q 37.3125 74.21875 42.625 73.28125 
Q 47.953125 72.359375 53.515625 70.515625 
z
" id="DejaVuSans-83"/>
       <path d="M 50 53.078125 
L 48.296875 44.578125 
Q 44.734375 46.53125 40.765625 47.5 
Q 36.8125 48.484375 32.625 48.484375 
Q 25.53125 48.484375 21.453125 46.0625 
Q 17.390625 43.65625 17.390625 39.5 
Q 17.390625 34.671875 26.859375 32.078125 
Q 27.59375 31.890625 27.9375 31.78125 
L 30.8125 30.90625 
Q 39.796875 28.421875 42.796875 25.6875 
Q 45.796875 22.953125 45.796875 18.21875 
Q 45.796875 9.515625 38.890625 4.046875 
Q 31.984375 -1.421875 20.796875 -1.421875 
Q 16.453125 -1.421875 11.671875 -0.578125 
Q 6.890625 0.25 1.125 2 
L 2.875 11.28125 
Q 7.8125 8.734375 12.59375 7.421875 
Q 17.390625 6.109375 21.78125 6.109375 
Q 28.375 6.109375 32.5 8.9375 
Q 36.625 11.765625 36.625 16.109375 
Q 36.625 20.796875 25.78125 23.6875 
L 24.859375 23.921875 
L 21.78125 24.703125 
Q 14.9375 26.515625 11.765625 29.46875 
Q 8.59375 32.421875 8.59375 37.015625 
Q 8.59375 45.75 15.15625 50.875 
Q 21.734375 56 33.015625 56 
Q 37.453125 56 41.671875 55.265625 
Q 45.90625 54.546875 50 53.078125 
z
" id="DejaVuSans-Oblique-115"/>
       <path d="M 18.3125 75.984375 
L 27.296875 75.984375 
L 25.09375 64.59375 
L 16.109375 64.59375 
z
M 14.203125 54.6875 
L 23.1875 54.6875 
L 12.5 0 
L 3.515625 0 
z
" id="DejaVuSans-Oblique-105"/>
       <path d="M 89.796875 33.015625 
L 83.40625 0 
L 74.421875 0 
L 80.71875 32.71875 
Q 81.109375 34.8125 81.296875 36.328125 
Q 81.5 37.84375 81.5 38.921875 
Q 81.5 43.3125 79.046875 45.75 
Q 76.609375 48.1875 72.21875 48.1875 
Q 65.671875 48.1875 60.546875 43.28125 
Q 55.421875 38.375 53.90625 30.515625 
L 47.90625 0 
L 38.921875 0 
L 45.3125 32.71875 
Q 45.703125 34.515625 45.890625 36.046875 
Q 46.09375 37.59375 46.09375 38.8125 
Q 46.09375 43.265625 43.65625 45.71875 
Q 41.21875 48.1875 36.921875 48.1875 
Q 30.28125 48.1875 25.140625 43.28125 
Q 20.015625 38.375 18.5 30.515625 
L 12.5 0 
L 3.515625 0 
L 14.203125 54.6875 
L 23.1875 54.6875 
L 21.484375 46.1875 
Q 25.140625 50.984375 30.046875 53.484375 
Q 34.96875 56 40.578125 56 
Q 46.53125 56 50.359375 52.875 
Q 54.203125 49.75 54.984375 44.1875 
Q 59.078125 49.953125 64.46875 52.96875 
Q 69.875 56 75.875 56 
Q 82.90625 56 86.734375 51.953125 
Q 90.578125 47.90625 90.578125 40.484375 
Q 90.578125 38.875 90.375 36.9375 
Q 90.1875 35.015625 89.796875 33.015625 
z
" id="DejaVuSans-Oblique-109"/>
       <path d="M 4.890625 31.390625 
L 31.203125 31.390625 
L 31.203125 23.390625 
L 4.890625 23.390625 
z
" id="DejaVuSans-45"/>
       <path d="M 48.09375 32.234375 
Q 48.25 33.015625 48.3125 33.84375 
Q 48.390625 34.671875 48.390625 35.5 
Q 48.390625 41.453125 44.890625 44.921875 
Q 41.40625 48.390625 35.40625 48.390625 
Q 28.71875 48.390625 23.578125 44.15625 
Q 18.453125 39.9375 15.828125 32.171875 
z
M 55.90625 25.203125 
L 14.109375 25.203125 
Q 13.8125 23.34375 13.71875 22.265625 
Q 13.625 21.1875 13.625 20.40625 
Q 13.625 13.625 17.796875 9.90625 
Q 21.96875 6.203125 29.59375 6.203125 
Q 35.453125 6.203125 40.671875 7.515625 
Q 45.90625 8.84375 50.390625 11.375 
L 48.6875 2.484375 
Q 43.84375 0.53125 38.6875 -0.4375 
Q 33.546875 -1.421875 28.21875 -1.421875 
Q 16.84375 -1.421875 10.71875 4.015625 
Q 4.59375 9.46875 4.59375 19.484375 
Q 4.59375 28.03125 7.640625 35.375 
Q 10.6875 42.71875 16.609375 48.484375 
Q 20.40625 52.09375 25.65625 54.046875 
Q 30.90625 56 36.8125 56 
Q 46.09375 56 51.578125 50.4375 
Q 57.078125 44.875 57.078125 35.5 
Q 57.078125 33.25 56.78125 30.6875 
Q 56.5 28.125 55.90625 25.203125 
z
" id="DejaVuSans-Oblique-101"/>
       <path d="M 60.015625 54.6875 
L 34.90625 27.875 
L 50.296875 0 
L 39.984375 0 
L 28.421875 21.6875 
L 8.296875 0 
L -2.59375 0 
L 24.3125 28.8125 
L 10.015625 54.6875 
L 20.3125 54.6875 
L 30.8125 34.90625 
L 49.125 54.6875 
z
" id="DejaVuSans-Oblique-120"/>
       <path d="M 49.609375 33.6875 
Q 49.609375 40.875 46.484375 44.671875 
Q 43.359375 48.484375 37.5 48.484375 
Q 33.5 48.484375 29.859375 46.4375 
Q 26.21875 44.390625 23.390625 40.484375 
Q 20.609375 36.625 18.9375 31.15625 
Q 17.28125 25.6875 17.28125 20.3125 
Q 17.28125 13.484375 20.40625 9.796875 
Q 23.53125 6.109375 29.296875 6.109375 
Q 33.546875 6.109375 37.1875 8.109375 
Q 40.828125 10.109375 43.40625 13.921875 
Q 46.1875 17.921875 47.890625 23.34375 
Q 49.609375 28.765625 49.609375 33.6875 
z
M 21.78125 46.390625 
Q 25.390625 51.125 30.296875 53.5625 
Q 35.203125 56 41.21875 56 
Q 49.609375 56 54.25 50.5 
Q 58.890625 45.015625 58.890625 35.109375 
Q 58.890625 27 56 19.65625 
Q 53.125 12.3125 47.703125 6.5 
Q 44.09375 2.640625 39.546875 0.609375 
Q 35.015625 -1.421875 29.984375 -1.421875 
Q 24.171875 -1.421875 20.21875 1 
Q 16.265625 3.421875 14.3125 8.203125 
L 8.6875 -20.796875 
L -0.296875 -20.796875 
L 14.40625 54.6875 
L 23.390625 54.6875 
z
" id="DejaVuSans-Oblique-112"/>
       <path id="DejaVuSans-32"/>
       <path d="M 31 75.875 
Q 24.46875 64.65625 21.28125 53.65625 
Q 18.109375 42.671875 18.109375 31.390625 
Q 18.109375 20.125 21.3125 9.0625 
Q 24.515625 -2 31 -13.1875 
L 23.1875 -13.1875 
Q 15.875 -1.703125 12.234375 9.375 
Q 8.59375 20.453125 8.59375 31.390625 
Q 8.59375 42.28125 12.203125 53.3125 
Q 15.828125 64.359375 23.1875 75.875 
z
" id="DejaVuSans-40"/>
       <path d="M 40.921875 25.4375 
L 40.96875 36.71875 
Q 41.015625 48.25 32.328125 48.296875 
Q 25.828125 48.34375 21.78125 42.921875 
Q 16.703125 36.234375 14.984375 27.296875 
Q 12.890625 16.546875 15.53125 11.421875 
Q 18.265625 6.203125 24.171875 6.203125 
Q 30.71875 6.203125 36.234375 16.609375 
z
M 33.84375 55.90625 
Q 49.078125 56.15625 48.875 40.375 
Q 48.875 40.375 56.5 54.6875 
L 64.5 54.6875 
L 48.734375 25.046875 
L 48.578125 14.359375 
Q 48.578125 11.96875 49.90625 9.96875 
Q 51.421875 7.625 52.984375 7.625 
L 57.328125 7.625 
L 55.859375 0 
L 50.4375 0 
Q 45.84375 0 42.53125 4.109375 
Q 40.96875 6.15625 40.921875 10.453125 
Q 37.75 5.21875 32.28125 0.78125 
Q 29.6875 -1.265625 22.703125 -1.21875 
Q 11.28125 -1.125 7.125 6.203125 
Q 2.875 13.8125 5.515625 27.296875 
Q 8.34375 41.796875 15.765625 48.390625 
Q 24.125 55.765625 33.84375 55.90625 
z
" id="DejaVuSans-Oblique-945"/>
       <path d="M 11.71875 12.40625 
L 22.015625 12.40625 
L 22.015625 4 
L 14.015625 -11.625 
L 7.71875 -11.625 
L 11.71875 4 
z
" id="DejaVuSans-44"/>
       <path d="M 18.109375 8.203125 
L 18.109375 -20.796875 
L 9.078125 -20.796875 
L 9.078125 54.6875 
L 18.109375 54.6875 
L 18.109375 46.390625 
Q 20.953125 51.265625 25.265625 53.625 
Q 29.59375 56 35.59375 56 
Q 45.5625 56 51.78125 48.09375 
Q 58.015625 40.1875 58.015625 27.296875 
Q 58.015625 14.40625 51.78125 6.484375 
Q 45.5625 -1.421875 35.59375 -1.421875 
Q 29.59375 -1.421875 25.265625 0.953125 
Q 20.953125 3.328125 18.109375 8.203125 
z
M 48.6875 27.296875 
Q 48.6875 37.203125 44.609375 42.84375 
Q 40.53125 48.484375 33.40625 48.484375 
Q 26.265625 48.484375 22.1875 42.84375 
Q 18.109375 37.203125 18.109375 27.296875 
Q 18.109375 17.390625 22.1875 11.75 
Q 26.265625 6.109375 33.40625 6.109375 
Q 40.53125 6.109375 44.609375 11.75 
Q 48.6875 17.390625 48.6875 27.296875 
z
" id="DejaVuSans-112"/>
       <path d="M 52 44.1875 
Q 55.375 50.25 60.0625 53.125 
Q 64.75 56 71.09375 56 
Q 79.640625 56 84.28125 50.015625 
Q 88.921875 44.046875 88.921875 33.015625 
L 88.921875 0 
L 79.890625 0 
L 79.890625 32.71875 
Q 79.890625 40.578125 77.09375 44.375 
Q 74.3125 48.1875 68.609375 48.1875 
Q 61.625 48.1875 57.5625 43.546875 
Q 53.515625 38.921875 53.515625 30.90625 
L 53.515625 0 
L 44.484375 0 
L 44.484375 32.71875 
Q 44.484375 40.625 41.703125 44.40625 
Q 38.921875 48.1875 33.109375 48.1875 
Q 26.21875 48.1875 22.15625 43.53125 
Q 18.109375 38.875 18.109375 30.90625 
L 18.109375 0 
L 9.078125 0 
L 9.078125 54.6875 
L 18.109375 54.6875 
L 18.109375 46.1875 
Q 21.1875 51.21875 25.484375 53.609375 
Q 29.78125 56 35.6875 56 
Q 41.65625 56 45.828125 52.96875 
Q 50 49.953125 52 44.1875 
z
" id="DejaVuSans-109"/>
       <path d="M 8.015625 75.875 
L 15.828125 75.875 
Q 23.140625 64.359375 26.78125 53.3125 
Q 30.421875 42.28125 30.421875 31.390625 
Q 30.421875 20.453125 26.78125 9.375 
Q 23.140625 -1.703125 15.828125 -13.1875 
L 8.015625 -13.1875 
Q 14.5 -2 17.703125 9.0625 
Q 20.90625 20.125 20.90625 31.390625 
Q 20.90625 42.671875 17.703125 53.65625 
Q 14.5 64.65625 8.015625 75.875 
z
" id="DejaVuSans-41"/>
      </defs>
      <use transform="translate(0 0.125)" xlink:href="#DejaVuSans-916"/>
      <use transform="translate(68.408203 0.125)" xlink:href="#DejaVuSans-67"/>
      <use transform="translate(138.232422 0.125)" xlink:href="#DejaVuSans-83"/>
      <use transform="translate(202.666016 -16.28125)scale(0.7)" xlink:href="#DejaVuSans-Oblique-115"/>
      <use transform="translate(239.135742 -16.28125)scale(0.7)" xlink:href="#DejaVuSans-Oblique-105"/>
      <use transform="translate(258.583984 -16.28125)scale(0.7)" xlink:href="#DejaVuSans-Oblique-109"/>
      <use transform="translate(329.506836 0.125)" xlink:href="#DejaVuSans-45"/>
      <use transform="translate(365.59082 0.125)" xlink:href="#DejaVuSans-916"/>
      <use transform="translate(433.999023 0.125)" xlink:href="#DejaVuSans-67"/>
      <use transform="translate(503.823242 0.125)" xlink:href="#DejaVuSans-83"/>
      <use transform="translate(568.256836 -16.28125)scale(0.7)" xlink:href="#DejaVuSans-Oblique-101"/>
      <use transform="translate(611.323242 -16.28125)scale(0.7)" xlink:href="#DejaVuSans-Oblique-120"/>
      <use transform="translate(652.749023 -16.28125)scale(0.7)" xlink:href="#DejaVuSans-Oblique-112"/>
      <use transform="translate(699.916992 0.125)" xlink:href="#DejaVuSans-32"/>
      <use transform="translate(731.704102 0.125)" xlink:href="#DejaVuSans-32"/>
      <use transform="translate(763.491211 0.125)" xlink:href="#DejaVuSans-40"/>
      <use transform="translate(802.504883 0.125)" xlink:href="#DejaVuSans-67"/>
      <use transform="translate(873.286133 -16.28125)scale(0.7)" xlink:href="#DejaVuSans-Oblique-945"/>
      <use transform="translate(922.163086 0.125)" xlink:href="#DejaVuSans-44"/>
      <use transform="translate(953.950195 0.125)" xlink:href="#DejaVuSans-32"/>
      <use transform="translate(985.737305 0.125)" xlink:href="#DejaVuSans-112"/>
      <use transform="translate(1049.213867 0.125)" xlink:href="#DejaVuSans-112"/>
      <use transform="translate(1112.69043 0.125)" xlink:href="#DejaVuSans-109"/>
      <use transform="translate(1210.102539 0.125)" xlink:href="#DejaVuSans-41"/>
     </g>
    </g>
   </g>
   <g id="matplotlib.axis_2">
    <g id="ytick_1">
     <g id="text_8">
      <!-- SPARTA+ FO:  T107 -->
      <g transform="translate(3.28899 622.124273)scale(0.12 -0.12)">
       <defs>
        <path d="M 19.671875 64.796875 
L 19.671875 37.40625 
L 32.078125 37.40625 
Q 38.96875 37.40625 42.71875 40.96875 
Q 46.484375 44.53125 46.484375 51.125 
Q 46.484375 57.671875 42.71875 61.234375 
Q 38.96875 64.796875 32.078125 64.796875 
z
M 9.8125 72.90625 
L 32.078125 72.90625 
Q 44.34375 72.90625 50.609375 67.359375 
Q 56.890625 61.8125 56.890625 51.125 
Q 56.890625 40.328125 50.609375 34.8125 
Q 44.34375 29.296875 32.078125 29.296875 
L 19.671875 29.296875 
L 19.671875 0 
L 9.8125 0 
z
" id="DejaVuSans-80"/>
        <path d="M 34.1875 63.1875 
L 20.796875 26.90625 
L 47.609375 26.90625 
z
M 28.609375 72.90625 
L 39.796875 72.90625 
L 67.578125 0 
L 57.328125 0 
L 50.6875 18.703125 
L 17.828125 18.703125 
L 11.1875 0 
L 0.78125 0 
z
" id="DejaVuSans-65"/>
        <path d="M 44.390625 34.1875 
Q 47.5625 33.109375 50.5625 29.59375 
Q 53.5625 26.078125 56.59375 19.921875 
L 66.609375 0 
L 56 0 
L 46.6875 18.703125 
Q 43.0625 26.03125 39.671875 28.421875 
Q 36.28125 30.8125 30.421875 30.8125 
L 19.671875 30.8125 
L 19.671875 0 
L 9.8125 0 
L 9.8125 72.90625 
L 32.078125 72.90625 
Q 44.578125 72.90625 50.734375 67.671875 
Q 56.890625 62.453125 56.890625 51.90625 
Q 56.890625 45.015625 53.6875 40.46875 
Q 50.484375 35.9375 44.390625 34.1875 
z
M 19.671875 64.796875 
L 19.671875 38.921875 
L 32.078125 38.921875 
Q 39.203125 38.921875 42.84375 42.21875 
Q 46.484375 45.515625 46.484375 51.90625 
Q 46.484375 58.296875 42.84375 61.546875 
Q 39.203125 64.796875 32.078125 64.796875 
z
" id="DejaVuSans-82"/>
        <path d="M -0.296875 72.90625 
L 61.375 72.90625 
L 61.375 64.59375 
L 35.5 64.59375 
L 35.5 0 
L 25.59375 0 
L 25.59375 64.59375 
L -0.296875 64.59375 
z
" id="DejaVuSans-84"/>
        <path d="M 46 62.703125 
L 46 35.5 
L 73.1875 35.5 
L 73.1875 27.203125 
L 46 27.203125 
L 46 0 
L 37.796875 0 
L 37.796875 27.203125 
L 10.59375 27.203125 
L 10.59375 35.5 
L 37.796875 35.5 
L 37.796875 62.703125 
z
" id="DejaVuSans-43"/>
        <path d="M 9.8125 72.90625 
L 51.703125 72.90625 
L 51.703125 64.59375 
L 19.671875 64.59375 
L 19.671875 43.109375 
L 48.578125 43.109375 
L 48.578125 34.8125 
L 19.671875 34.8125 
L 19.671875 0 
L 9.8125 0 
z
" id="DejaVuSans-70"/>
        <path d="M 39.40625 66.21875 
Q 28.65625 66.21875 22.328125 58.203125 
Q 16.015625 50.203125 16.015625 36.375 
Q 16.015625 22.609375 22.328125 14.59375 
Q 28.65625 6.59375 39.40625 6.59375 
Q 50.140625 6.59375 56.421875 14.59375 
Q 62.703125 22.609375 62.703125 36.375 
Q 62.703125 50.203125 56.421875 58.203125 
Q 50.140625 66.21875 39.40625 66.21875 
z
M 39.40625 74.21875 
Q 54.734375 74.21875 63.90625 63.9375 
Q 73.09375 53.65625 73.09375 36.375 
Q 73.09375 19.140625 63.90625 8.859375 
Q 54.734375 -1.421875 39.40625 -1.421875 
Q 24.03125 -1.421875 14.8125 8.828125 
Q 5.609375 19.09375 5.609375 36.375 
Q 5.609375 53.65625 14.8125 63.9375 
Q 24.03125 74.21875 39.40625 74.21875 
z
" id="DejaVuSans-79"/>
        <path d="M 11.71875 12.40625 
L 22.015625 12.40625 
L 22.015625 0 
L 11.71875 0 
z
M 11.71875 51.703125 
L 22.015625 51.703125 
L 22.015625 39.3125 
L 11.71875 39.3125 
z
" id="DejaVuSans-58"/>
        <path d="M 8.203125 72.90625 
L 55.078125 72.90625 
L 55.078125 68.703125 
L 28.609375 0 
L 18.3125 0 
L 43.21875 64.59375 
L 8.203125 64.59375 
z
" id="DejaVuSans-55"/>
       </defs>
       <use xlink:href="#DejaVuSans-83"/>
       <use x="63.476562" xlink:href="#DejaVuSans-80"/>
       <use x="117.404297" xlink:href="#DejaVuSans-65"/>
       <use x="185.8125" xlink:href="#DejaVuSans-82"/>
       <use x="248.044922" xlink:href="#DejaVuSans-84"/>
       <use x="301.378906" xlink:href="#DejaVuSans-65"/>
       <use x="369.787109" xlink:href="#DejaVuSans-43"/>
       <use x="453.576172" xlink:href="#DejaVuSans-32"/>
       <use x="485.363281" xlink:href="#DejaVuSans-70"/>
       <use x="542.882812" xlink:href="#DejaVuSans-79"/>
       <use x="619.84375" xlink:href="#DejaVuSans-58"/>
       <use x="653.535156" xlink:href="#DejaVuSans-32"/>
       <use x="685.322266" xlink:href="#DejaVuSans-32"/>
       <use x="717.109375" xlink:href="#DejaVuSans-84"/>
       <use x="778.193359" xlink:href="#DejaVuSans-49"/>
       <use x="841.816406" xlink:href="#DejaVuSans-48"/>
       <use x="905.439453" xlink:href="#DejaVuSans-55"/>
      </g>
     </g>
    </g>
    <g id="ytick_2">
     <g id="text_9">
      <!-- SPARTA+ O:  T107 -->
      <g transform="translate(10.190865 604.565274)scale(0.12 -0.12)">
       <use xlink:href="#DejaVuSans-83"/>
       <use x="63.476562" xlink:href="#DejaVuSans-80"/>
       <use x="117.404297" xlink:href="#DejaVuSans-65"/>
       <use x="185.8125" xlink:href="#DejaVuSans-82"/>
       <use x="248.044922" xlink:href="#DejaVuSans-84"/>
       <use x="301.378906" xlink:href="#DejaVuSans-65"/>
       <use x="369.787109" xlink:href="#DejaVuSans-43"/>
       <use x="453.576172" xlink:href="#DejaVuSans-32"/>
       <use x="485.363281" xlink:href="#DejaVuSans-79"/>
       <use x="562.324219" xlink:href="#DejaVuSans-58"/>
       <use x="596.015625" xlink:href="#DejaVuSans-32"/>
       <use x="627.802734" xlink:href="#DejaVuSans-32"/>
       <use x="659.589844" xlink:href="#DejaVuSans-84"/>
       <use x="720.673828" xlink:href="#DejaVuSans-49"/>
       <use x="784.296875" xlink:href="#DejaVuSans-48"/>
       <use x="847.919922" xlink:href="#DejaVuSans-55"/>
      </g>
     </g>
    </g>
    <g id="ytick_3">
     <g id="text_10">
      <!-- PPM FO:  T107 -->
      <g transform="translate(32.893365 587.006275)scale(0.12 -0.12)">
       <defs>
        <path d="M 9.8125 72.90625 
L 24.515625 72.90625 
L 43.109375 23.296875 
L 61.8125 72.90625 
L 76.515625 72.90625 
L 76.515625 0 
L 66.890625 0 
L 66.890625 64.015625 
L 48.09375 14.015625 
L 38.1875 14.015625 
L 19.390625 64.015625 
L 19.390625 0 
L 9.8125 0 
z
" id="DejaVuSans-77"/>
       </defs>
       <use xlink:href="#DejaVuSans-80"/>
       <use x="60.302734" xlink:href="#DejaVuSans-80"/>
       <use x="120.605469" xlink:href="#DejaVuSans-77"/>
       <use x="206.884766" xlink:href="#DejaVuSans-32"/>
       <use x="238.671875" xlink:href="#DejaVuSans-70"/>
       <use x="296.191406" xlink:href="#DejaVuSans-79"/>
       <use x="373.152344" xlink:href="#DejaVuSans-58"/>
       <use x="406.84375" xlink:href="#DejaVuSans-32"/>
       <use x="438.630859" xlink:href="#DejaVuSans-32"/>
       <use x="470.417969" xlink:href="#DejaVuSans-84"/>
       <use x="531.501953" xlink:href="#DejaVuSans-49"/>
       <use x="595.125" xlink:href="#DejaVuSans-48"/>
       <use x="658.748047" xlink:href="#DejaVuSans-55"/>
      </g>
     </g>
    </g>
    <g id="ytick_4">
     <g id="text_11">
      <!-- PPM O:  T107 -->
      <g transform="translate(39.79524 569.447276)scale(0.12 -0.12)">
       <use xlink:href="#DejaVuSans-80"/>
       <use x="60.302734" xlink:href="#DejaVuSans-80"/>
       <use x="120.605469" xlink:href="#DejaVuSans-77"/>
       <use x="206.884766" xlink:href="#DejaVuSans-32"/>
       <use x="238.671875" xlink:href="#DejaVuSans-79"/>
       <use x="315.632812" xlink:href="#DejaVuSans-58"/>
       <use x="349.324219" xlink:href="#DejaVuSans-32"/>
       <use x="381.111328" xlink:href="#DejaVuSans-32"/>
       <use x="412.898438" xlink:href="#DejaVuSans-84"/>
       <use x="473.982422" xlink:href="#DejaVuSans-49"/>
       <use x="537.605469" xlink:href="#DejaVuSans-48"/>
       <use x="601.228516" xlink:href="#DejaVuSans-55"/>
      </g>
     </g>
    </g>
    <g id="ytick_5">
     <g id="text_12">
      <!-- SPARTA+ FO:  S102 -->
      <g transform="translate(3.00024 530.817478)scale(0.12 -0.12)">
       <defs>
        <path d="M 19.1875 8.296875 
L 53.609375 8.296875 
L 53.609375 0 
L 7.328125 0 
L 7.328125 8.296875 
Q 12.9375 14.109375 22.625 23.890625 
Q 32.328125 33.6875 34.8125 36.53125 
Q 39.546875 41.84375 41.421875 45.53125 
Q 43.3125 49.21875 43.3125 52.78125 
Q 43.3125 58.59375 39.234375 62.25 
Q 35.15625 65.921875 28.609375 65.921875 
Q 23.96875 65.921875 18.8125 64.3125 
Q 13.671875 62.703125 7.8125 59.421875 
L 7.8125 69.390625 
Q 13.765625 71.78125 18.9375 73 
Q 24.125 74.21875 28.421875 74.21875 
Q 39.75 74.21875 46.484375 68.546875 
Q 53.21875 62.890625 53.21875 53.421875 
Q 53.21875 48.921875 51.53125 44.890625 
Q 49.859375 40.875 45.40625 35.40625 
Q 44.1875 33.984375 37.640625 27.21875 
Q 31.109375 20.453125 19.1875 8.296875 
z
" id="DejaVuSans-50"/>
       </defs>
       <use xlink:href="#DejaVuSans-83"/>
       <use x="63.476562" xlink:href="#DejaVuSans-80"/>
       <use x="117.404297" xlink:href="#DejaVuSans-65"/>
       <use x="185.8125" xlink:href="#DejaVuSans-82"/>
       <use x="248.044922" xlink:href="#DejaVuSans-84"/>
       <use x="301.378906" xlink:href="#DejaVuSans-65"/>
       <use x="369.787109" xlink:href="#DejaVuSans-43"/>
       <use x="453.576172" xlink:href="#DejaVuSans-32"/>
       <use x="485.363281" xlink:href="#DejaVuSans-70"/>
       <use x="542.882812" xlink:href="#DejaVuSans-79"/>
       <use x="619.84375" xlink:href="#DejaVuSans-58"/>
       <use x="653.535156" xlink:href="#DejaVuSans-32"/>
       <use x="685.322266" xlink:href="#DejaVuSans-32"/>
       <use x="717.109375" xlink:href="#DejaVuSans-83"/>
       <use x="780.585938" xlink:href="#DejaVuSans-49"/>
       <use x="844.208984" xlink:href="#DejaVuSans-48"/>
       <use x="907.832031" xlink:href="#DejaVuSans-50"/>
      </g>
     </g>
    </g>
    <g id="ytick_6">
     <g id="text_13">
      <!-- SPARTA+ O:  S102 -->
      <g transform="translate(9.902115 513.258479)scale(0.12 -0.12)">
       <use xlink:href="#DejaVuSans-83"/>
       <use x="63.476562" xlink:href="#DejaVuSans-80"/>
       <use x="117.404297" xlink:href="#DejaVuSans-65"/>
       <use x="185.8125" xlink:href="#DejaVuSans-82"/>
       <use x="248.044922" xlink:href="#DejaVuSans-84"/>
       <use x="301.378906" xlink:href="#DejaVuSans-65"/>
       <use x="369.787109" xlink:href="#DejaVuSans-43"/>
       <use x="453.576172" xlink:href="#DejaVuSans-32"/>
       <use x="485.363281" xlink:href="#DejaVuSans-79"/>
       <use x="562.324219" xlink:href="#DejaVuSans-58"/>
       <use x="596.015625" xlink:href="#DejaVuSans-32"/>
       <use x="627.802734" xlink:href="#DejaVuSans-32"/>
       <use x="659.589844" xlink:href="#DejaVuSans-83"/>
       <use x="723.066406" xlink:href="#DejaVuSans-49"/>
       <use x="786.689453" xlink:href="#DejaVuSans-48"/>
       <use x="850.3125" xlink:href="#DejaVuSans-50"/>
      </g>
     </g>
    </g>
    <g id="ytick_7">
     <g id="text_14">
      <!-- PPM FO:  S102 -->
      <g transform="translate(32.604615 495.699479)scale(0.12 -0.12)">
       <use xlink:href="#DejaVuSans-80"/>
       <use x="60.302734" xlink:href="#DejaVuSans-80"/>
       <use x="120.605469" xlink:href="#DejaVuSans-77"/>
       <use x="206.884766" xlink:href="#DejaVuSans-32"/>
       <use x="238.671875" xlink:href="#DejaVuSans-70"/>
       <use x="296.191406" xlink:href="#DejaVuSans-79"/>
       <use x="373.152344" xlink:href="#DejaVuSans-58"/>
       <use x="406.84375" xlink:href="#DejaVuSans-32"/>
       <use x="438.630859" xlink:href="#DejaVuSans-32"/>
       <use x="470.417969" xlink:href="#DejaVuSans-83"/>
       <use x="533.894531" xlink:href="#DejaVuSans-49"/>
       <use x="597.517578" xlink:href="#DejaVuSans-48"/>
       <use x="661.140625" xlink:href="#DejaVuSans-50"/>
      </g>
     </g>
    </g>
    <g id="ytick_8">
     <g id="text_15">
      <!-- PPM O:  S102 -->
      <g transform="translate(39.50649 478.14048)scale(0.12 -0.12)">
       <use xlink:href="#DejaVuSans-80"/>
       <use x="60.302734" xlink:href="#DejaVuSans-80"/>
       <use x="120.605469" xlink:href="#DejaVuSans-77"/>
       <use x="206.884766" xlink:href="#DejaVuSans-32"/>
       <use x="238.671875" xlink:href="#DejaVuSans-79"/>
       <use x="315.632812" xlink:href="#DejaVuSans-58"/>
       <use x="349.324219" xlink:href="#DejaVuSans-32"/>
       <use x="381.111328" xlink:href="#DejaVuSans-32"/>
       <use x="412.898438" xlink:href="#DejaVuSans-83"/>
       <use x="476.375" xlink:href="#DejaVuSans-49"/>
       <use x="539.998047" xlink:href="#DejaVuSans-48"/>
       <use x="603.621094" xlink:href="#DejaVuSans-50"/>
      </g>
     </g>
    </g>
    <g id="ytick_9">
     <g id="text_16">
      <!-- SPARTA+ FO:  T75 -->
      <g transform="translate(10.92399 439.510682)scale(0.12 -0.12)">
       <use xlink:href="#DejaVuSans-83"/>
       <use x="63.476562" xlink:href="#DejaVuSans-80"/>
       <use x="117.404297" xlink:href="#DejaVuSans-65"/>
       <use x="185.8125" xlink:href="#DejaVuSans-82"/>
       <use x="248.044922" xlink:href="#DejaVuSans-84"/>
       <use x="301.378906" xlink:href="#DejaVuSans-65"/>
       <use x="369.787109" xlink:href="#DejaVuSans-43"/>
       <use x="453.576172" xlink:href="#DejaVuSans-32"/>
       <use x="485.363281" xlink:href="#DejaVuSans-70"/>
       <use x="542.882812" xlink:href="#DejaVuSans-79"/>
       <use x="619.84375" xlink:href="#DejaVuSans-58"/>
       <use x="653.535156" xlink:href="#DejaVuSans-32"/>
       <use x="685.322266" xlink:href="#DejaVuSans-32"/>
       <use x="717.109375" xlink:href="#DejaVuSans-84"/>
       <use x="778.193359" xlink:href="#DejaVuSans-55"/>
       <use x="841.816406" xlink:href="#DejaVuSans-53"/>
      </g>
     </g>
    </g>
    <g id="ytick_10">
     <g id="text_17">
      <!-- SPARTA+ O:  T75 -->
      <g transform="translate(17.825865 421.951683)scale(0.12 -0.12)">
       <use xlink:href="#DejaVuSans-83"/>
       <use x="63.476562" xlink:href="#DejaVuSans-80"/>
       <use x="117.404297" xlink:href="#DejaVuSans-65"/>
       <use x="185.8125" xlink:href="#DejaVuSans-82"/>
       <use x="248.044922" xlink:href="#DejaVuSans-84"/>
       <use x="301.378906" xlink:href="#DejaVuSans-65"/>
       <use x="369.787109" xlink:href="#DejaVuSans-43"/>
       <use x="453.576172" xlink:href="#DejaVuSans-32"/>
       <use x="485.363281" xlink:href="#DejaVuSans-79"/>
       <use x="562.324219" xlink:href="#DejaVuSans-58"/>
       <use x="596.015625" xlink:href="#DejaVuSans-32"/>
       <use x="627.802734" xlink:href="#DejaVuSans-32"/>
       <use x="659.589844" xlink:href="#DejaVuSans-84"/>
       <use x="720.673828" xlink:href="#DejaVuSans-55"/>
       <use x="784.296875" xlink:href="#DejaVuSans-53"/>
      </g>
     </g>
    </g>
    <g id="ytick_11">
     <g id="text_18">
      <!-- SPARTA+ FO:  R64 -->
      <g transform="translate(9.91524 383.321885)scale(0.12 -0.12)">
       <defs>
        <path d="M 33.015625 40.375 
Q 26.375 40.375 22.484375 35.828125 
Q 18.609375 31.296875 18.609375 23.390625 
Q 18.609375 15.53125 22.484375 10.953125 
Q 26.375 6.390625 33.015625 6.390625 
Q 39.65625 6.390625 43.53125 10.953125 
Q 47.40625 15.53125 47.40625 23.390625 
Q 47.40625 31.296875 43.53125 35.828125 
Q 39.65625 40.375 33.015625 40.375 
z
M 52.59375 71.296875 
L 52.59375 62.3125 
Q 48.875 64.0625 45.09375 64.984375 
Q 41.3125 65.921875 37.59375 65.921875 
Q 27.828125 65.921875 22.671875 59.328125 
Q 17.53125 52.734375 16.796875 39.40625 
Q 19.671875 43.65625 24.015625 45.921875 
Q 28.375 48.1875 33.59375 48.1875 
Q 44.578125 48.1875 50.953125 41.515625 
Q 57.328125 34.859375 57.328125 23.390625 
Q 57.328125 12.15625 50.6875 5.359375 
Q 44.046875 -1.421875 33.015625 -1.421875 
Q 20.359375 -1.421875 13.671875 8.265625 
Q 6.984375 17.96875 6.984375 36.375 
Q 6.984375 53.65625 15.1875 63.9375 
Q 23.390625 74.21875 37.203125 74.21875 
Q 40.921875 74.21875 44.703125 73.484375 
Q 48.484375 72.75 52.59375 71.296875 
z
" id="DejaVuSans-54"/>
        <path d="M 37.796875 64.3125 
L 12.890625 25.390625 
L 37.796875 25.390625 
z
M 35.203125 72.90625 
L 47.609375 72.90625 
L 47.609375 25.390625 
L 58.015625 25.390625 
L 58.015625 17.1875 
L 47.609375 17.1875 
L 47.609375 0 
L 37.796875 0 
L 37.796875 17.1875 
L 4.890625 17.1875 
L 4.890625 26.703125 
z
" id="DejaVuSans-52"/>
       </defs>
       <use xlink:href="#DejaVuSans-83"/>
       <use x="63.476562" xlink:href="#DejaVuSans-80"/>
       <use x="117.404297" xlink:href="#DejaVuSans-65"/>
       <use x="185.8125" xlink:href="#DejaVuSans-82"/>
       <use x="248.044922" xlink:href="#DejaVuSans-84"/>
       <use x="301.378906" xlink:href="#DejaVuSans-65"/>
       <use x="369.787109" xlink:href="#DejaVuSans-43"/>
       <use x="453.576172" xlink:href="#DejaVuSans-32"/>
       <use x="485.363281" xlink:href="#DejaVuSans-70"/>
       <use x="542.882812" xlink:href="#DejaVuSans-79"/>
       <use x="619.84375" xlink:href="#DejaVuSans-58"/>
       <use x="653.535156" xlink:href="#DejaVuSans-32"/>
       <use x="685.322266" xlink:href="#DejaVuSans-32"/>
       <use x="717.109375" xlink:href="#DejaVuSans-82"/>
       <use x="786.591797" xlink:href="#DejaVuSans-54"/>
       <use x="850.214844" xlink:href="#DejaVuSans-52"/>
      </g>
     </g>
    </g>
    <g id="ytick_12">
     <g id="text_19">
      <!-- SPARTA+ O:  R64 -->
      <g transform="translate(16.817115 365.762886)scale(0.12 -0.12)">
       <use xlink:href="#DejaVuSans-83"/>
       <use x="63.476562" xlink:href="#DejaVuSans-80"/>
       <use x="117.404297" xlink:href="#DejaVuSans-65"/>
       <use x="185.8125" xlink:href="#DejaVuSans-82"/>
       <use x="248.044922" xlink:href="#DejaVuSans-84"/>
       <use x="301.378906" xlink:href="#DejaVuSans-65"/>
       <use x="369.787109" xlink:href="#DejaVuSans-43"/>
       <use x="453.576172" xlink:href="#DejaVuSans-32"/>
       <use x="485.363281" xlink:href="#DejaVuSans-79"/>
       <use x="562.324219" xlink:href="#DejaVuSans-58"/>
       <use x="596.015625" xlink:href="#DejaVuSans-32"/>
       <use x="627.802734" xlink:href="#DejaVuSans-32"/>
       <use x="659.589844" xlink:href="#DejaVuSans-82"/>
       <use x="729.072266" xlink:href="#DejaVuSans-54"/>
       <use x="792.695312" xlink:href="#DejaVuSans-52"/>
      </g>
     </g>
    </g>
    <g id="ytick_13">
     <g id="text_20">
      <!-- PPM FO:  R64 -->
      <g transform="translate(39.519615 348.203886)scale(0.12 -0.12)">
       <use xlink:href="#DejaVuSans-80"/>
       <use x="60.302734" xlink:href="#DejaVuSans-80"/>
       <use x="120.605469" xlink:href="#DejaVuSans-77"/>
       <use x="206.884766" xlink:href="#DejaVuSans-32"/>
       <use x="238.671875" xlink:href="#DejaVuSans-70"/>
       <use x="296.191406" xlink:href="#DejaVuSans-79"/>
       <use x="373.152344" xlink:href="#DejaVuSans-58"/>
       <use x="406.84375" xlink:href="#DejaVuSans-32"/>
       <use x="438.630859" xlink:href="#DejaVuSans-32"/>
       <use x="470.417969" xlink:href="#DejaVuSans-82"/>
       <use x="539.900391" xlink:href="#DejaVuSans-54"/>
       <use x="603.523438" xlink:href="#DejaVuSans-52"/>
      </g>
     </g>
    </g>
    <g id="ytick_14">
     <g id="text_21">
      <!-- PPM O:  R64 -->
      <g transform="translate(46.42149 330.644887)scale(0.12 -0.12)">
       <use xlink:href="#DejaVuSans-80"/>
       <use x="60.302734" xlink:href="#DejaVuSans-80"/>
       <use x="120.605469" xlink:href="#DejaVuSans-77"/>
       <use x="206.884766" xlink:href="#DejaVuSans-32"/>
       <use x="238.671875" xlink:href="#DejaVuSans-79"/>
       <use x="315.632812" xlink:href="#DejaVuSans-58"/>
       <use x="349.324219" xlink:href="#DejaVuSans-32"/>
       <use x="381.111328" xlink:href="#DejaVuSans-32"/>
       <use x="412.898438" xlink:href="#DejaVuSans-82"/>
       <use x="482.380859" xlink:href="#DejaVuSans-54"/>
       <use x="546.003906" xlink:href="#DejaVuSans-52"/>
      </g>
     </g>
    </g>
    <g id="ytick_15">
     <g id="text_22">
      <!-- SPARTA+ FO:  T61 -->
      <g transform="translate(10.92399 292.015089)scale(0.12 -0.12)">
       <use xlink:href="#DejaVuSans-83"/>
       <use x="63.476562" xlink:href="#DejaVuSans-80"/>
       <use x="117.404297" xlink:href="#DejaVuSans-65"/>
       <use x="185.8125" xlink:href="#DejaVuSans-82"/>
       <use x="248.044922" xlink:href="#DejaVuSans-84"/>
       <use x="301.378906" xlink:href="#DejaVuSans-65"/>
       <use x="369.787109" xlink:href="#DejaVuSans-43"/>
       <use x="453.576172" xlink:href="#DejaVuSans-32"/>
       <use x="485.363281" xlink:href="#DejaVuSans-70"/>
       <use x="542.882812" xlink:href="#DejaVuSans-79"/>
       <use x="619.84375" xlink:href="#DejaVuSans-58"/>
       <use x="653.535156" xlink:href="#DejaVuSans-32"/>
       <use x="685.322266" xlink:href="#DejaVuSans-32"/>
       <use x="717.109375" xlink:href="#DejaVuSans-84"/>
       <use x="778.193359" xlink:href="#DejaVuSans-54"/>
       <use x="841.816406" xlink:href="#DejaVuSans-49"/>
      </g>
     </g>
    </g>
    <g id="ytick_16">
     <g id="text_23">
      <!-- SPARTA+ O:  T61 -->
      <g transform="translate(17.825865 274.45609)scale(0.12 -0.12)">
       <use xlink:href="#DejaVuSans-83"/>
       <use x="63.476562" xlink:href="#DejaVuSans-80"/>
       <use x="117.404297" xlink:href="#DejaVuSans-65"/>
       <use x="185.8125" xlink:href="#DejaVuSans-82"/>
       <use x="248.044922" xlink:href="#DejaVuSans-84"/>
       <use x="301.378906" xlink:href="#DejaVuSans-65"/>
       <use x="369.787109" xlink:href="#DejaVuSans-43"/>
       <use x="453.576172" xlink:href="#DejaVuSans-32"/>
       <use x="485.363281" xlink:href="#DejaVuSans-79"/>
       <use x="562.324219" xlink:href="#DejaVuSans-58"/>
       <use x="596.015625" xlink:href="#DejaVuSans-32"/>
       <use x="627.802734" xlink:href="#DejaVuSans-32"/>
       <use x="659.589844" xlink:href="#DejaVuSans-84"/>
       <use x="720.673828" xlink:href="#DejaVuSans-54"/>
       <use x="784.296875" xlink:href="#DejaVuSans-49"/>
      </g>
     </g>
    </g>
    <g id="ytick_17">
     <g id="text_24">
      <!-- SPARTA+ FO:  A50 -->
      <g transform="translate(10.044615 235.826292)scale(0.12 -0.12)">
       <use xlink:href="#DejaVuSans-83"/>
       <use x="63.476562" xlink:href="#DejaVuSans-80"/>
       <use x="117.404297" xlink:href="#DejaVuSans-65"/>
       <use x="185.8125" xlink:href="#DejaVuSans-82"/>
       <use x="248.044922" xlink:href="#DejaVuSans-84"/>
       <use x="301.378906" xlink:href="#DejaVuSans-65"/>
       <use x="369.787109" xlink:href="#DejaVuSans-43"/>
       <use x="453.576172" xlink:href="#DejaVuSans-32"/>
       <use x="485.363281" xlink:href="#DejaVuSans-70"/>
       <use x="542.882812" xlink:href="#DejaVuSans-79"/>
       <use x="619.84375" xlink:href="#DejaVuSans-58"/>
       <use x="653.535156" xlink:href="#DejaVuSans-32"/>
       <use x="685.322266" xlink:href="#DejaVuSans-32"/>
       <use x="717.109375" xlink:href="#DejaVuSans-65"/>
       <use x="785.517578" xlink:href="#DejaVuSans-53"/>
       <use x="849.140625" xlink:href="#DejaVuSans-48"/>
      </g>
     </g>
    </g>
    <g id="ytick_18">
     <g id="text_25">
      <!-- SPARTA+ O:  A50 -->
      <g transform="translate(16.94649 218.267293)scale(0.12 -0.12)">
       <use xlink:href="#DejaVuSans-83"/>
       <use x="63.476562" xlink:href="#DejaVuSans-80"/>
       <use x="117.404297" xlink:href="#DejaVuSans-65"/>
       <use x="185.8125" xlink:href="#DejaVuSans-82"/>
       <use x="248.044922" xlink:href="#DejaVuSans-84"/>
       <use x="301.378906" xlink:href="#DejaVuSans-65"/>
       <use x="369.787109" xlink:href="#DejaVuSans-43"/>
       <use x="453.576172" xlink:href="#DejaVuSans-32"/>
       <use x="485.363281" xlink:href="#DejaVuSans-79"/>
       <use x="562.324219" xlink:href="#DejaVuSans-58"/>
       <use x="596.015625" xlink:href="#DejaVuSans-32"/>
       <use x="627.802734" xlink:href="#DejaVuSans-32"/>
       <use x="659.589844" xlink:href="#DejaVuSans-65"/>
       <use x="727.998047" xlink:href="#DejaVuSans-53"/>
       <use x="791.621094" xlink:href="#DejaVuSans-48"/>
      </g>
     </g>
    </g>
    <g id="ytick_19">
     <g id="text_26">
      <!-- PPM FO:  G99 -->
      <g transform="translate(38.559615 179.637494)scale(0.12 -0.12)">
       <defs>
        <path d="M 59.515625 10.40625 
L 59.515625 29.984375 
L 43.40625 29.984375 
L 43.40625 38.09375 
L 69.28125 38.09375 
L 69.28125 6.78125 
Q 63.578125 2.734375 56.6875 0.65625 
Q 49.8125 -1.421875 42 -1.421875 
Q 24.90625 -1.421875 15.25 8.5625 
Q 5.609375 18.5625 5.609375 36.375 
Q 5.609375 54.25 15.25 64.234375 
Q 24.90625 74.21875 42 74.21875 
Q 49.125 74.21875 55.546875 72.453125 
Q 61.96875 70.703125 67.390625 67.28125 
L 67.390625 56.78125 
Q 61.921875 61.421875 55.765625 63.765625 
Q 49.609375 66.109375 42.828125 66.109375 
Q 29.4375 66.109375 22.71875 58.640625 
Q 16.015625 51.171875 16.015625 36.375 
Q 16.015625 21.625 22.71875 14.15625 
Q 29.4375 6.6875 42.828125 6.6875 
Q 48.046875 6.6875 52.140625 7.59375 
Q 56.25 8.5 59.515625 10.40625 
z
" id="DejaVuSans-71"/>
        <path d="M 10.984375 1.515625 
L 10.984375 10.5 
Q 14.703125 8.734375 18.5 7.8125 
Q 22.3125 6.890625 25.984375 6.890625 
Q 35.75 6.890625 40.890625 13.453125 
Q 46.046875 20.015625 46.78125 33.40625 
Q 43.953125 29.203125 39.59375 26.953125 
Q 35.25 24.703125 29.984375 24.703125 
Q 19.046875 24.703125 12.671875 31.3125 
Q 6.296875 37.9375 6.296875 49.421875 
Q 6.296875 60.640625 12.9375 67.421875 
Q 19.578125 74.21875 30.609375 74.21875 
Q 43.265625 74.21875 49.921875 64.515625 
Q 56.59375 54.828125 56.59375 36.375 
Q 56.59375 19.140625 48.40625 8.859375 
Q 40.234375 -1.421875 26.421875 -1.421875 
Q 22.703125 -1.421875 18.890625 -0.6875 
Q 15.09375 0.046875 10.984375 1.515625 
z
M 30.609375 32.421875 
Q 37.25 32.421875 41.125 36.953125 
Q 45.015625 41.5 45.015625 49.421875 
Q 45.015625 57.28125 41.125 61.84375 
Q 37.25 66.40625 30.609375 66.40625 
Q 23.96875 66.40625 20.09375 61.84375 
Q 16.21875 57.28125 16.21875 49.421875 
Q 16.21875 41.5 20.09375 36.953125 
Q 23.96875 32.421875 30.609375 32.421875 
z
" id="DejaVuSans-57"/>
       </defs>
       <use xlink:href="#DejaVuSans-80"/>
       <use x="60.302734" xlink:href="#DejaVuSans-80"/>
       <use x="120.605469" xlink:href="#DejaVuSans-77"/>
       <use x="206.884766" xlink:href="#DejaVuSans-32"/>
       <use x="238.671875" xlink:href="#DejaVuSans-70"/>
       <use x="296.191406" xlink:href="#DejaVuSans-79"/>
       <use x="373.152344" xlink:href="#DejaVuSans-58"/>
       <use x="406.84375" xlink:href="#DejaVuSans-32"/>
       <use x="438.630859" xlink:href="#DejaVuSans-32"/>
       <use x="470.417969" xlink:href="#DejaVuSans-71"/>
       <use x="547.908203" xlink:href="#DejaVuSans-57"/>
       <use x="611.53125" xlink:href="#DejaVuSans-57"/>
      </g>
     </g>
    </g>
    <g id="ytick_20">
     <g id="text_27">
      <!-- PPM O:  G99 -->
      <g transform="translate(45.46149 162.078495)scale(0.12 -0.12)">
       <use xlink:href="#DejaVuSans-80"/>
       <use x="60.302734" xlink:href="#DejaVuSans-80"/>
       <use x="120.605469" xlink:href="#DejaVuSans-77"/>
       <use x="206.884766" xlink:href="#DejaVuSans-32"/>
       <use x="238.671875" xlink:href="#DejaVuSans-79"/>
       <use x="315.632812" xlink:href="#DejaVuSans-58"/>
       <use x="349.324219" xlink:href="#DejaVuSans-32"/>
       <use x="381.111328" xlink:href="#DejaVuSans-32"/>
       <use x="412.898438" xlink:href="#DejaVuSans-71"/>
       <use x="490.388672" xlink:href="#DejaVuSans-57"/>
       <use x="554.011719" xlink:href="#DejaVuSans-57"/>
      </g>
     </g>
    </g>
    <g id="ytick_21">
     <g id="text_28">
      <!-- PPM FO:  Y78 -->
      <g transform="translate(40.528365 123.448697)scale(0.12 -0.12)">
       <defs>
        <path d="M -0.203125 72.90625 
L 10.40625 72.90625 
L 30.609375 42.921875 
L 50.6875 72.90625 
L 61.28125 72.90625 
L 35.5 34.71875 
L 35.5 0 
L 25.59375 0 
L 25.59375 34.71875 
z
" id="DejaVuSans-89"/>
        <path d="M 31.78125 34.625 
Q 24.75 34.625 20.71875 30.859375 
Q 16.703125 27.09375 16.703125 20.515625 
Q 16.703125 13.921875 20.71875 10.15625 
Q 24.75 6.390625 31.78125 6.390625 
Q 38.8125 6.390625 42.859375 10.171875 
Q 46.921875 13.96875 46.921875 20.515625 
Q 46.921875 27.09375 42.890625 30.859375 
Q 38.875 34.625 31.78125 34.625 
z
M 21.921875 38.8125 
Q 15.578125 40.375 12.03125 44.71875 
Q 8.5 49.078125 8.5 55.328125 
Q 8.5 64.0625 14.71875 69.140625 
Q 20.953125 74.21875 31.78125 74.21875 
Q 42.671875 74.21875 48.875 69.140625 
Q 55.078125 64.0625 55.078125 55.328125 
Q 55.078125 49.078125 51.53125 44.71875 
Q 48 40.375 41.703125 38.8125 
Q 48.828125 37.15625 52.796875 32.3125 
Q 56.78125 27.484375 56.78125 20.515625 
Q 56.78125 9.90625 50.3125 4.234375 
Q 43.84375 -1.421875 31.78125 -1.421875 
Q 19.734375 -1.421875 13.25 4.234375 
Q 6.78125 9.90625 6.78125 20.515625 
Q 6.78125 27.484375 10.78125 32.3125 
Q 14.796875 37.15625 21.921875 38.8125 
z
M 18.3125 54.390625 
Q 18.3125 48.734375 21.84375 45.5625 
Q 25.390625 42.390625 31.78125 42.390625 
Q 38.140625 42.390625 41.71875 45.5625 
Q 45.3125 48.734375 45.3125 54.390625 
Q 45.3125 60.0625 41.71875 63.234375 
Q 38.140625 66.40625 31.78125 66.40625 
Q 25.390625 66.40625 21.84375 63.234375 
Q 18.3125 60.0625 18.3125 54.390625 
z
" id="DejaVuSans-56"/>
       </defs>
       <use xlink:href="#DejaVuSans-80"/>
       <use x="60.302734" xlink:href="#DejaVuSans-80"/>
       <use x="120.605469" xlink:href="#DejaVuSans-77"/>
       <use x="206.884766" xlink:href="#DejaVuSans-32"/>
       <use x="238.671875" xlink:href="#DejaVuSans-70"/>
       <use x="296.191406" xlink:href="#DejaVuSans-79"/>
       <use x="373.152344" xlink:href="#DejaVuSans-58"/>
       <use x="406.84375" xlink:href="#DejaVuSans-32"/>
       <use x="438.630859" xlink:href="#DejaVuSans-32"/>
       <use x="470.417969" xlink:href="#DejaVuSans-89"/>
       <use x="531.501953" xlink:href="#DejaVuSans-55"/>
       <use x="595.125" xlink:href="#DejaVuSans-56"/>
      </g>
     </g>
    </g>
    <g id="ytick_22">
     <g id="text_29">
      <!-- PPM O:  Y78 -->
      <g transform="translate(47.43024 105.889698)scale(0.12 -0.12)">
       <use xlink:href="#DejaVuSans-80"/>
       <use x="60.302734" xlink:href="#DejaVuSans-80"/>
       <use x="120.605469" xlink:href="#DejaVuSans-77"/>
       <use x="206.884766" xlink:href="#DejaVuSans-32"/>
       <use x="238.671875" xlink:href="#DejaVuSans-79"/>
       <use x="315.632812" xlink:href="#DejaVuSans-58"/>
       <use x="349.324219" xlink:href="#DejaVuSans-32"/>
       <use x="381.111328" xlink:href="#DejaVuSans-32"/>
       <use x="412.898438" xlink:href="#DejaVuSans-89"/>
       <use x="473.982422" xlink:href="#DejaVuSans-55"/>
       <use x="537.605469" xlink:href="#DejaVuSans-56"/>
      </g>
     </g>
    </g>
    <g id="ytick_23">
     <g id="text_30">
      <!-- PPM FO:  Y62 -->
      <g transform="translate(40.528365 67.2599)scale(0.12 -0.12)">
       <use xlink:href="#DejaVuSans-80"/>
       <use x="60.302734" xlink:href="#DejaVuSans-80"/>
       <use x="120.605469" xlink:href="#DejaVuSans-77"/>
       <use x="206.884766" xlink:href="#DejaVuSans-32"/>
       <use x="238.671875" xlink:href="#DejaVuSans-70"/>
       <use x="296.191406" xlink:href="#DejaVuSans-79"/>
       <use x="373.152344" xlink:href="#DejaVuSans-58"/>
       <use x="406.84375" xlink:href="#DejaVuSans-32"/>
       <use x="438.630859" xlink:href="#DejaVuSans-32"/>
       <use x="470.417969" xlink:href="#DejaVuSans-89"/>
       <use x="531.501953" xlink:href="#DejaVuSans-54"/>
       <use x="595.125" xlink:href="#DejaVuSans-50"/>
      </g>
     </g>
    </g>
    <g id="ytick_24">
     <g id="text_31">
      <!-- PPM O:  Y62 -->
      <g transform="translate(47.43024 49.700901)scale(0.12 -0.12)">
       <use xlink:href="#DejaVuSans-80"/>
       <use x="60.302734" xlink:href="#DejaVuSans-80"/>
       <use x="120.605469" xlink:href="#DejaVuSans-77"/>
       <use x="206.884766" xlink:href="#DejaVuSans-32"/>
       <use x="238.671875" xlink:href="#DejaVuSans-79"/>
       <use x="315.632812" xlink:href="#DejaVuSans-58"/>
       <use x="349.324219" xlink:href="#DejaVuSans-32"/>
       <use x="381.111328" xlink:href="#DejaVuSans-32"/>
       <use x="412.898438" xlink:href="#DejaVuSans-89"/>
       <use x="473.982422" xlink:href="#DejaVuSans-54"/>
       <use x="537.605469" xlink:href="#DejaVuSans-50"/>
      </g>
     </g>
    </g>
   </g>
   <g id="patch_3">
    <path clip-path="url(#p784610aa3f)" d="M 230.148416 638.63601 
L 230.148416 -33876.386301 
L 270.938435 -33876.386301 
L 270.938435 638.63601 
z
" style="fill:#2ca02c;opacity:0.5;stroke:#2ca02c;stroke-linejoin:miter;"/>
   </g>
   <g id="patch_4">
    <path clip-path="url(#p784610aa3f)" d="M 123.074615 617.565211 
L 123.074615 591.226712 
L 428.99976 591.226712 
L 428.99976 617.565211 
z
" style="fill:none;opacity:0;"/>
   </g>
   <g id="patch_5">
    <path clip-path="url(#p784610aa3f)" d="M 123.074615 591.226712 
L 123.074615 545.573314 
L 428.99976 545.573314 
L 428.99976 591.226712 
z
" style="opacity:0.1;stroke:#000000;stroke-linejoin:miter;"/>
   </g>
   <g id="patch_6">
    <path clip-path="url(#p784610aa3f)" d="M 123.074615 545.573314 
L 123.074615 499.919917 
L 428.99976 499.919917 
L 428.99976 545.573314 
z
" style="fill:none;opacity:0;"/>
   </g>
   <g id="patch_7">
    <path clip-path="url(#p784610aa3f)" d="M 123.074615 499.919917 
L 123.074615 454.266519 
L 428.99976 454.266519 
L 428.99976 499.919917 
z
" style="opacity:0.1;stroke:#000000;stroke-linejoin:miter;"/>
   </g>
   <g id="patch_8">
    <path clip-path="url(#p784610aa3f)" d="M 123.074615 454.266519 
L 123.074615 398.077721 
L 428.99976 398.077721 
L 428.99976 454.266519 
z
" style="fill:none;opacity:0;"/>
   </g>
   <g id="patch_9">
    <path clip-path="url(#p784610aa3f)" d="M 123.074615 398.077721 
L 123.074615 352.424324 
L 428.99976 352.424324 
L 428.99976 398.077721 
z
" style="opacity:0.1;stroke:#000000;stroke-linejoin:miter;"/>
   </g>
   <g id="patch_10">
    <path clip-path="url(#p784610aa3f)" d="M 123.074615 352.424324 
L 123.074615 306.770926 
L 428.99976 306.770926 
L 428.99976 352.424324 
z
" style="fill:none;opacity:0;"/>
   </g>
   <g id="patch_11">
    <path clip-path="url(#p784610aa3f)" d="M 123.074615 306.770926 
L 123.074615 250.582128 
L 428.99976 250.582128 
L 428.99976 306.770926 
z
" style="opacity:0.1;stroke:#000000;stroke-linejoin:miter;"/>
   </g>
   <g id="patch_12">
    <path clip-path="url(#p784610aa3f)" d="M 123.074615 250.582128 
L 123.074615 194.393331 
L 428.99976 194.393331 
L 428.99976 250.582128 
z
" style="fill:none;opacity:0;"/>
   </g>
   <g id="patch_13">
    <path clip-path="url(#p784610aa3f)" d="M 123.074615 194.393331 
L 123.074615 138.204534 
L 428.99976 138.204534 
L 428.99976 194.393331 
z
" style="opacity:0.1;stroke:#000000;stroke-linejoin:miter;"/>
   </g>
   <g id="patch_14">
    <path clip-path="url(#p784610aa3f)" d="M 123.074615 138.204534 
L 123.074615 82.015736 
L 428.99976 82.015736 
L 428.99976 138.204534 
z
" style="fill:none;opacity:0;"/>
   </g>
   <g id="patch_15">
    <path clip-path="url(#p784610aa3f)" d="M 123.074615 82.015736 
L 123.074615 24.071039 
L 428.99976 24.071039 
L 428.99976 82.015736 
z
" style="opacity:0.1;stroke:#000000;stroke-linejoin:miter;"/>
   </g>
   <g id="LineCollection_1">
    <path clip-path="url(#p784610aa3f)" d="M 144.9317 617.565211 
L 150.144088 617.565211 
" style="fill:none;stroke:#ff7f0e;stroke-width:1.5;"/>
   </g>
   <g id="LineCollection_2">
    <path clip-path="url(#p784610aa3f)" d="M 146.631805 617.565211 
L 148.51442 617.565211 
" style="fill:none;stroke:#ff7f0e;stroke-width:3;"/>
   </g>
   <g id="LineCollection_3">
    <path clip-path="url(#p784610aa3f)" d="M 226.045007 600.006212 
L 232.3298 600.006212 
" style="fill:none;stroke:#1f77b4;stroke-width:1.5;"/>
   </g>
   <g id="LineCollection_4">
    <path clip-path="url(#p784610aa3f)" d="M 228.055288 600.006212 
L 230.315406 600.006212 
" style="fill:none;stroke:#1f77b4;stroke-width:3;"/>
   </g>
   <g id="LineCollection_5">
    <path clip-path="url(#p784610aa3f)" style="fill:none;stroke:#ff7f0e;stroke-width:1.5;"/>
   </g>
   <g id="LineCollection_6">
    <path clip-path="url(#p784610aa3f)" style="fill:none;stroke:#ff7f0e;stroke-width:3;"/>
   </g>
   <g id="LineCollection_7">
    <path clip-path="url(#p784610aa3f)" d="M 143.692453 564.888213 
L 158.663066 564.888213 
" style="fill:none;stroke:#1f77b4;stroke-width:1.5;"/>
   </g>
   <g id="LineCollection_8">
    <path clip-path="url(#p784610aa3f)" d="M 148.254612 564.888213 
L 153.621825 564.888213 
" style="fill:none;stroke:#1f77b4;stroke-width:3;"/>
   </g>
   <g id="LineCollection_9">
    <path clip-path="url(#p784610aa3f)" d="M 208.609722 526.258415 
L 213.566367 526.258415 
" style="fill:none;stroke:#ff7f0e;stroke-width:1.5;"/>
   </g>
   <g id="LineCollection_10">
    <path clip-path="url(#p784610aa3f)" d="M 210.303364 526.258415 
L 212.066588 526.258415 
" style="fill:none;stroke:#ff7f0e;stroke-width:3;"/>
   </g>
   <g id="LineCollection_11">
    <path clip-path="url(#p784610aa3f)" d="M 251.890992 508.699416 
L 256.778564 508.699416 
" style="fill:none;stroke:#1f77b4;stroke-width:1.5;"/>
   </g>
   <g id="LineCollection_12">
    <path clip-path="url(#p784610aa3f)" d="M 253.436617 508.699416 
L 255.201222 508.699416 
" style="fill:none;stroke:#1f77b4;stroke-width:3;"/>
   </g>
   <g id="LineCollection_13">
    <path clip-path="url(#p784610aa3f)" d="M 171.800572 491.140417 
L 187.813594 491.140417 
" style="fill:none;stroke:#ff7f0e;stroke-width:1.5;"/>
   </g>
   <g id="LineCollection_14">
    <path clip-path="url(#p784610aa3f)" d="M 176.834753 491.140417 
L 182.627431 491.140417 
" style="fill:none;stroke:#ff7f0e;stroke-width:3;"/>
   </g>
   <g id="LineCollection_15">
    <path clip-path="url(#p784610aa3f)" d="M 267.050258 473.581418 
L 282.731868 473.581418 
" style="fill:none;stroke:#1f77b4;stroke-width:1.5;"/>
   </g>
   <g id="LineCollection_16">
    <path clip-path="url(#p784610aa3f)" d="M 272.12633 473.581418 
L 277.748291 473.581418 
" style="fill:none;stroke:#1f77b4;stroke-width:3;"/>
   </g>
   <g id="LineCollection_17">
    <path clip-path="url(#p784610aa3f)" d="M 262.811571 434.95162 
L 267.281191 434.95162 
" style="fill:none;stroke:#ff7f0e;stroke-width:1.5;"/>
   </g>
   <g id="LineCollection_18">
    <path clip-path="url(#p784610aa3f)" d="M 264.215617 434.95162 
L 265.803023 434.95162 
" style="fill:none;stroke:#ff7f0e;stroke-width:3;"/>
   </g>
   <g id="LineCollection_19">
    <path clip-path="url(#p784610aa3f)" d="M 240.051616 417.39262 
L 244.734163 417.39262 
" style="fill:none;stroke:#1f77b4;stroke-width:1.5;"/>
   </g>
   <g id="LineCollection_20">
    <path clip-path="url(#p784610aa3f)" d="M 241.488308 417.39262 
L 243.117358 417.39262 
" style="fill:none;stroke:#1f77b4;stroke-width:3;"/>
   </g>
   <g id="LineCollection_21">
    <path clip-path="url(#p784610aa3f)" d="M 255.056534 378.762822 
L 260.646281 378.762822 
" style="fill:none;stroke:#ff7f0e;stroke-width:1.5;"/>
   </g>
   <g id="LineCollection_22">
    <path clip-path="url(#p784610aa3f)" d="M 256.830814 378.762822 
L 258.888641 378.762822 
" style="fill:none;stroke:#ff7f0e;stroke-width:3;"/>
   </g>
   <g id="LineCollection_23">
    <path clip-path="url(#p784610aa3f)" d="M 217.17799 361.203823 
L 224.965356 361.203823 
" style="fill:none;stroke:#1f77b4;stroke-width:1.5;"/>
   </g>
   <g id="LineCollection_24">
    <path clip-path="url(#p784610aa3f)" d="M 219.510885 361.203823 
L 222.30793 361.203823 
" style="fill:none;stroke:#1f77b4;stroke-width:3;"/>
   </g>
   <g id="LineCollection_25">
    <path clip-path="url(#p784610aa3f)" d="M 251.7326 343.644824 
L 264.166182 343.644824 
" style="fill:none;stroke:#ff7f0e;stroke-width:1.5;"/>
   </g>
   <g id="LineCollection_26">
    <path clip-path="url(#p784610aa3f)" d="M 255.910579 343.644824 
L 260.336442 343.644824 
" style="fill:none;stroke:#ff7f0e;stroke-width:3;"/>
   </g>
   <g id="LineCollection_27">
    <path clip-path="url(#p784610aa3f)" d="M 157.901056 326.085825 
L 175.961021 326.085825 
" style="fill:none;stroke:#1f77b4;stroke-width:1.5;"/>
   </g>
   <g id="LineCollection_28">
    <path clip-path="url(#p784610aa3f)" d="M 163.350491 326.085825 
L 169.912891 326.085825 
" style="fill:none;stroke:#1f77b4;stroke-width:3;"/>
   </g>
   <g id="LineCollection_29">
    <path clip-path="url(#p784610aa3f)" d="M 234.453369 287.456027 
L 242.672349 287.456027 
" style="fill:none;stroke:#ff7f0e;stroke-width:1.5;"/>
   </g>
   <g id="LineCollection_30">
    <path clip-path="url(#p784610aa3f)" d="M 236.99247 287.456027 
L 239.934138 287.456027 
" style="fill:none;stroke:#ff7f0e;stroke-width:3;"/>
   </g>
   <g id="LineCollection_31">
    <path clip-path="url(#p784610aa3f)" d="M 320.674185 269.897027 
L 335.374225 269.897027 
" style="fill:none;stroke:#1f77b4;stroke-width:1.5;"/>
   </g>
   <g id="LineCollection_32">
    <path clip-path="url(#p784610aa3f)" d="M 325.197211 269.897027 
L 330.389236 269.897027 
" style="fill:none;stroke:#1f77b4;stroke-width:3;"/>
   </g>
   <g id="LineCollection_33">
    <path clip-path="url(#p784610aa3f)" d="M 217.729801 231.267229 
L 223.692797 231.267229 
" style="fill:none;stroke:#ff7f0e;stroke-width:1.5;"/>
   </g>
   <g id="LineCollection_34">
    <path clip-path="url(#p784610aa3f)" d="M 219.542361 231.267229 
L 221.703992 231.267229 
" style="fill:none;stroke:#ff7f0e;stroke-width:3;"/>
   </g>
   <g id="LineCollection_35">
    <path clip-path="url(#p784610aa3f)" d="M 245.387895 213.70823 
L 250.495411 213.70823 
" style="fill:none;stroke:#1f77b4;stroke-width:1.5;"/>
   </g>
   <g id="LineCollection_36">
    <path clip-path="url(#p784610aa3f)" d="M 246.996358 213.70823 
L 248.841125 213.70823 
" style="fill:none;stroke:#1f77b4;stroke-width:3;"/>
   </g>
   <g id="LineCollection_37">
    <path clip-path="url(#p784610aa3f)" d="M 162.852809 175.078432 
L 172.928653 175.078432 
" style="fill:none;stroke:#ff7f0e;stroke-width:1.5;"/>
   </g>
   <g id="LineCollection_38">
    <path clip-path="url(#p784610aa3f)" d="M 165.981208 175.078432 
L 169.684731 175.078432 
" style="fill:none;stroke:#ff7f0e;stroke-width:3;"/>
   </g>
   <g id="LineCollection_39">
    <path clip-path="url(#p784610aa3f)" d="M 245.692046 157.519433 
L 253.398984 157.519433 
" style="fill:none;stroke:#1f77b4;stroke-width:1.5;"/>
   </g>
   <g id="LineCollection_40">
    <path clip-path="url(#p784610aa3f)" d="M 248.21444 157.519433 
L 250.935557 157.519433 
" style="fill:none;stroke:#1f77b4;stroke-width:3;"/>
   </g>
   <g id="LineCollection_41">
    <path clip-path="url(#p784610aa3f)" d="M 388.890395 118.889635 
L 405.808045 118.889635 
" style="fill:none;stroke:#ff7f0e;stroke-width:1.5;"/>
   </g>
   <g id="LineCollection_42">
    <path clip-path="url(#p784610aa3f)" d="M 394.126055 118.889635 
L 400.260064 118.889635 
" style="fill:none;stroke:#ff7f0e;stroke-width:3;"/>
   </g>
   <g id="LineCollection_43">
    <path clip-path="url(#p784610aa3f)" d="M 244.347027 101.330635 
L 263.689446 101.330635 
" style="fill:none;stroke:#1f77b4;stroke-width:1.5;"/>
   </g>
   <g id="LineCollection_44">
    <path clip-path="url(#p784610aa3f)" d="M 250.437584 101.330635 
L 257.428651 101.330635 
" style="fill:none;stroke:#1f77b4;stroke-width:3;"/>
   </g>
   <g id="LineCollection_45">
    <path clip-path="url(#p784610aa3f)" d="M 394.957263 62.700837 
L 412.506589 62.700837 
" style="fill:none;stroke:#ff7f0e;stroke-width:1.5;"/>
   </g>
   <g id="LineCollection_46">
    <path clip-path="url(#p784610aa3f)" d="M 400.511691 62.700837 
L 406.867767 62.700837 
" style="fill:none;stroke:#ff7f0e;stroke-width:3;"/>
   </g>
   <g id="LineCollection_47">
    <path clip-path="url(#p784610aa3f)" d="M 302.500583 45.141838 
L 325.347577 45.141838 
" style="fill:none;stroke:#1f77b4;stroke-width:1.5;"/>
   </g>
   <g id="LineCollection_48">
    <path clip-path="url(#p784610aa3f)" d="M 309.711147 45.141838 
L 318.022024 45.141838 
" style="fill:none;stroke:#1f77b4;stroke-width:3;"/>
   </g>
   <g id="line2d_19">
    <defs>
     <path d="M 0 2.25 
C 0.596707 2.25 1.169055 2.012926 1.59099 1.59099 
C 2.012926 1.169055 2.25 0.596707 2.25 0 
C 2.25 -0.596707 2.012926 -1.169055 1.59099 -1.59099 
C 1.169055 -2.012926 0.596707 -2.25 0 -2.25 
C -0.596707 -2.25 -1.169055 -2.012926 -1.59099 -1.59099 
C -2.012926 -1.169055 -2.25 -0.596707 -2.25 0 
C -2.25 0.596707 -2.012926 1.169055 -1.59099 1.59099 
C -1.169055 2.012926 -0.596707 2.25 0 2.25 
z
" id="m693d6311bc" style="stroke:#ff7f0e;"/>
    </defs>
    <g clip-path="url(#p784610aa3f)">
     <use style="fill:#ffffff;stroke:#ff7f0e;" x="147.559304" xlink:href="#m693d6311bc" y="617.565211"/>
    </g>
   </g>
   <g id="line2d_20">
    <defs>
     <path d="M 0 2.25 
C 0.596707 2.25 1.169055 2.012926 1.59099 1.59099 
C 2.012926 1.169055 2.25 0.596707 2.25 0 
C 2.25 -0.596707 2.012926 -1.169055 1.59099 -1.59099 
C 1.169055 -2.012926 0.596707 -2.25 0 -2.25 
C -0.596707 -2.25 -1.169055 -2.012926 -1.59099 -1.59099 
C -2.012926 -1.169055 -2.25 -0.596707 -2.25 0 
C -2.25 0.596707 -2.012926 1.169055 -1.59099 1.59099 
C -1.169055 2.012926 -0.596707 2.25 0 2.25 
z
" id="m9e53742b7b" style="stroke:#1f77b4;"/>
    </defs>
    <g clip-path="url(#p784610aa3f)">
     <use style="fill:#ffffff;stroke:#1f77b4;" x="229.216452" xlink:href="#m9e53742b7b" y="600.006212"/>
    </g>
   </g>
   <g id="line2d_21">
    <g clip-path="url(#p784610aa3f)"/>
   </g>
   <g id="line2d_22">
    <g clip-path="url(#p784610aa3f)">
     <use style="fill:#ffffff;stroke:#1f77b4;" x="151.04074" xlink:href="#m9e53742b7b" y="564.888213"/>
    </g>
   </g>
   <g id="line2d_23">
    <g clip-path="url(#p784610aa3f)">
     <use style="fill:#ffffff;stroke:#ff7f0e;" x="211.203993" xlink:href="#m693d6311bc" y="526.258415"/>
    </g>
   </g>
   <g id="line2d_24">
    <g clip-path="url(#p784610aa3f)">
     <use style="fill:#ffffff;stroke:#1f77b4;" x="254.298036" xlink:href="#m9e53742b7b" y="508.699416"/>
    </g>
   </g>
   <g id="line2d_25">
    <g clip-path="url(#p784610aa3f)">
     <use style="fill:#ffffff;stroke:#ff7f0e;" x="179.706186" xlink:href="#m693d6311bc" y="491.140417"/>
    </g>
   </g>
   <g id="line2d_26">
    <g clip-path="url(#p784610aa3f)">
     <use style="fill:#ffffff;stroke:#1f77b4;" x="274.950809" xlink:href="#m9e53742b7b" y="473.581418"/>
    </g>
   </g>
   <g id="line2d_27">
    <g clip-path="url(#p784610aa3f)">
     <use style="fill:#ffffff;stroke:#ff7f0e;" x="265.004648" xlink:href="#m693d6311bc" y="434.95162"/>
    </g>
   </g>
   <g id="line2d_28">
    <g clip-path="url(#p784610aa3f)">
     <use style="fill:#ffffff;stroke:#1f77b4;" x="242.303019" xlink:href="#m9e53742b7b" y="417.39262"/>
    </g>
   </g>
   <g id="line2d_29">
    <g clip-path="url(#p784610aa3f)">
     <use style="fill:#ffffff;stroke:#ff7f0e;" x="257.876429" xlink:href="#m693d6311bc" y="378.762822"/>
    </g>
   </g>
   <g id="line2d_30">
    <g clip-path="url(#p784610aa3f)">
     <use style="fill:#ffffff;stroke:#1f77b4;" x="220.889105" xlink:href="#m9e53742b7b" y="361.203823"/>
    </g>
   </g>
   <g id="line2d_31">
    <g clip-path="url(#p784610aa3f)">
     <use style="fill:#ffffff;stroke:#ff7f0e;" x="258.117674" xlink:href="#m693d6311bc" y="343.644824"/>
    </g>
   </g>
   <g id="line2d_32">
    <g clip-path="url(#p784610aa3f)">
     <use style="fill:#ffffff;stroke:#1f77b4;" x="166.658167" xlink:href="#m9e53742b7b" y="326.085825"/>
    </g>
   </g>
   <g id="line2d_33">
    <g clip-path="url(#p784610aa3f)">
     <use style="fill:#ffffff;stroke:#ff7f0e;" x="238.496046" xlink:href="#m693d6311bc" y="287.456027"/>
    </g>
   </g>
   <g id="line2d_34">
    <g clip-path="url(#p784610aa3f)">
     <use style="fill:#ffffff;stroke:#1f77b4;" x="327.825214" xlink:href="#m9e53742b7b" y="269.897027"/>
    </g>
   </g>
   <g id="line2d_35">
    <g clip-path="url(#p784610aa3f)">
     <use style="fill:#ffffff;stroke:#ff7f0e;" x="220.646906" xlink:href="#m693d6311bc" y="231.267229"/>
    </g>
   </g>
   <g id="line2d_36">
    <g clip-path="url(#p784610aa3f)">
     <use style="fill:#ffffff;stroke:#1f77b4;" x="247.902104" xlink:href="#m9e53742b7b" y="213.70823"/>
    </g>
   </g>
   <g id="line2d_37">
    <g clip-path="url(#p784610aa3f)">
     <use style="fill:#ffffff;stroke:#ff7f0e;" x="167.850361" xlink:href="#m693d6311bc" y="175.078432"/>
    </g>
   </g>
   <g id="line2d_38">
    <g clip-path="url(#p784610aa3f)">
     <use style="fill:#ffffff;stroke:#1f77b4;" x="249.566665" xlink:href="#m9e53742b7b" y="157.519433"/>
    </g>
   </g>
   <g id="line2d_39">
    <g clip-path="url(#p784610aa3f)">
     <use style="fill:#ffffff;stroke:#ff7f0e;" x="397.191391" xlink:href="#m693d6311bc" y="118.889635"/>
    </g>
   </g>
   <g id="line2d_40">
    <g clip-path="url(#p784610aa3f)">
     <use style="fill:#ffffff;stroke:#1f77b4;" x="253.919846" xlink:href="#m9e53742b7b" y="101.330635"/>
    </g>
   </g>
   <g id="line2d_41">
    <g clip-path="url(#p784610aa3f)">
     <use style="fill:#ffffff;stroke:#ff7f0e;" x="403.675148" xlink:href="#m693d6311bc" y="62.700837"/>
    </g>
   </g>
   <g id="line2d_42">
    <g clip-path="url(#p784610aa3f)">
     <use style="fill:#ffffff;stroke:#1f77b4;" x="313.957119" xlink:href="#m9e53742b7b" y="45.141838"/>
    </g>
   </g>
   <g id="patch_16">
    <path d="M 123.074615 638.63601 
L 428.99976 638.63601 
" style="fill:none;stroke:#000000;stroke-linecap:square;stroke-linejoin:miter;stroke-width:0.8;"/>
   </g>
   <g id="patch_17">
    <path d="M 123.074615 3.00024 
L 428.99976 3.00024 
" style="fill:none;stroke:#000000;stroke-linecap:square;stroke-linejoin:miter;stroke-width:0.8;"/>
   </g>
  </g>
 </g>
 <defs>
  <clipPath id="p784610aa3f">
   <rect height="635.63577" width="305.925145" x="123.074615" y="3.00024"/>
  </clipPath>
 </defs>
</svg>
