<?xml version="1.0" encoding="utf-8" standalone="no"?>
<!DOCTYPE svg PUBLIC "-//W3C//DTD SVG 1.1//EN"
  "http://www.w3.org/Graphics/SVG/1.1/DTD/svg11.dtd">
<!-- Created with matplotlib (https://matplotlib.org/) -->
<svg height="554.4pt" version="1.1" viewBox="0 0 432 554.4" width="432pt" xmlns="http://www.w3.org/2000/svg" xmlns:xlink="http://www.w3.org/1999/xlink">
 <metadata>
  <rdf:RDF xmlns:cc="http://creativecommons.org/ns#" xmlns:dc="http://purl.org/dc/elements/1.1/" xmlns:rdf="http://www.w3.org/1999/02/22-rdf-syntax-ns#">
   <cc:Work>
    <dc:type rdf:resource="http://purl.org/dc/dcmitype/StillImage"/>
    <dc:date>2020-10-19T18:22:51.783804</dc:date>
    <dc:format>image/svg+xml</dc:format>
    <dc:creator>
     <cc:Agent>
      <dc:title>Matplotlib v3.3.2, https://matplotlib.org/</dc:title>
     </cc:Agent>
    </dc:creator>
   </cc:Work>
  </rdf:RDF>
 </metadata>
 <defs>
  <style type="text/css">*{stroke-linecap:butt;stroke-linejoin:round;}</style>
 </defs>
 <g id="figure_1">
  <g id="patch_1">
   <path d="M 0 554.4 
L 432 554.4 
L 432 0 
L 0 0 
z
" style="fill:#ffffff;"/>
  </g>
  <g id="axes_1">
   <g id="patch_2">
    <path d="M 41.42774 512.88601 
L 428.99976 512.88601 
L 428.99976 24.197115 
L 41.42774 24.197115 
z
" style="fill:#eaeaf2;"/>
   </g>
   <g id="matplotlib.axis_1">
    <g id="xtick_1">
     <g id="line2d_1">
      <path clip-path="url(#pfbdca92d3c)" d="M 57.888307 512.88601 
L 57.888307 24.197115 
" style="fill:none;stroke:#ffffff;stroke-linecap:round;stroke-width:2;"/>
     </g>
     <g id="line2d_2">
      <defs>
       <path d="M 0 0 
L 0 -3.5 
" id="mc0b40478ea" style="stroke:#000000;stroke-width:0.8;"/>
      </defs>
      <g>
       <use style="stroke:#000000;stroke-width:0.8;" x="57.888307" xlink:href="#mc0b40478ea" y="512.88601"/>
      </g>
     </g>
     <g id="line2d_3">
      <defs>
       <path d="M 0 0 
L 0 3.5 
" id="mfe91d3047e" style="stroke:#000000;stroke-width:0.8;"/>
      </defs>
      <g>
       <use style="stroke:#000000;stroke-width:0.8;" x="57.888307" xlink:href="#mfe91d3047e" y="24.197115"/>
      </g>
     </g>
     <g id="text_1">
      <!-- −1.5 -->
      <g transform="translate(43.318619 525.504135)scale(0.12 -0.12)">
       <defs>
        <path d="M 10.59375 35.5 
L 73.1875 35.5 
L 73.1875 27.203125 
L 10.59375 27.203125 
z
" id="DejaVuSans-8722"/>
        <path d="M 12.40625 8.296875 
L 28.515625 8.296875 
L 28.515625 63.921875 
L 10.984375 60.40625 
L 10.984375 69.390625 
L 28.421875 72.90625 
L 38.28125 72.90625 
L 38.28125 8.296875 
L 54.390625 8.296875 
L 54.390625 0 
L 12.40625 0 
z
" id="DejaVuSans-49"/>
        <path d="M 10.6875 12.40625 
L 21 12.40625 
L 21 0 
L 10.6875 0 
z
" id="DejaVuSans-46"/>
        <path d="M 10.796875 72.90625 
L 49.515625 72.90625 
L 49.515625 64.59375 
L 19.828125 64.59375 
L 19.828125 46.734375 
Q 21.96875 47.46875 24.109375 47.828125 
Q 26.265625 48.1875 28.421875 48.1875 
Q 40.625 48.1875 47.75 41.5 
Q 54.890625 34.8125 54.890625 23.390625 
Q 54.890625 11.625 47.5625 5.09375 
Q 40.234375 -1.421875 26.90625 -1.421875 
Q 22.3125 -1.421875 17.546875 -0.640625 
Q 12.796875 0.140625 7.71875 1.703125 
L 7.71875 11.625 
Q 12.109375 9.234375 16.796875 8.0625 
Q 21.484375 6.890625 26.703125 6.890625 
Q 35.15625 6.890625 40.078125 11.328125 
Q 45.015625 15.765625 45.015625 23.390625 
Q 45.015625 31 40.078125 35.4375 
Q 35.15625 39.890625 26.703125 39.890625 
Q 22.75 39.890625 18.8125 39.015625 
Q 14.890625 38.140625 10.796875 36.28125 
z
" id="DejaVuSans-53"/>
       </defs>
       <use xlink:href="#DejaVuSans-8722"/>
       <use x="83.789062" xlink:href="#DejaVuSans-49"/>
       <use x="147.412109" xlink:href="#DejaVuSans-46"/>
       <use x="179.199219" xlink:href="#DejaVuSans-53"/>
      </g>
     </g>
    </g>
    <g id="xtick_2">
     <g id="line2d_4">
      <path clip-path="url(#pfbdca92d3c)" d="M 107.257954 512.88601 
L 107.257954 24.197115 
" style="fill:none;stroke:#ffffff;stroke-linecap:round;stroke-width:2;"/>
     </g>
     <g id="line2d_5">
      <g>
       <use style="stroke:#000000;stroke-width:0.8;" x="107.257954" xlink:href="#mc0b40478ea" y="512.88601"/>
      </g>
     </g>
     <g id="line2d_6">
      <g>
       <use style="stroke:#000000;stroke-width:0.8;" x="107.257954" xlink:href="#mfe91d3047e" y="24.197115"/>
      </g>
     </g>
     <g id="text_2">
      <!-- −1.0 -->
      <g transform="translate(92.688267 525.504135)scale(0.12 -0.12)">
       <defs>
        <path d="M 31.78125 66.40625 
Q 24.171875 66.40625 20.328125 58.90625 
Q 16.5 51.421875 16.5 36.375 
Q 16.5 21.390625 20.328125 13.890625 
Q 24.171875 6.390625 31.78125 6.390625 
Q 39.453125 6.390625 43.28125 13.890625 
Q 47.125 21.390625 47.125 36.375 
Q 47.125 51.421875 43.28125 58.90625 
Q 39.453125 66.40625 31.78125 66.40625 
z
M 31.78125 74.21875 
Q 44.046875 74.21875 50.515625 64.515625 
Q 56.984375 54.828125 56.984375 36.375 
Q 56.984375 17.96875 50.515625 8.265625 
Q 44.046875 -1.421875 31.78125 -1.421875 
Q 19.53125 -1.421875 13.0625 8.265625 
Q 6.59375 17.96875 6.59375 36.375 
Q 6.59375 54.828125 13.0625 64.515625 
Q 19.53125 74.21875 31.78125 74.21875 
z
" id="DejaVuSans-48"/>
       </defs>
       <use xlink:href="#DejaVuSans-8722"/>
       <use x="83.789062" xlink:href="#DejaVuSans-49"/>
       <use x="147.412109" xlink:href="#DejaVuSans-46"/>
       <use x="179.199219" xlink:href="#DejaVuSans-48"/>
      </g>
     </g>
    </g>
    <g id="xtick_3">
     <g id="line2d_7">
      <path clip-path="url(#pfbdca92d3c)" d="M 156.627602 512.88601 
L 156.627602 24.197115 
" style="fill:none;stroke:#ffffff;stroke-linecap:round;stroke-width:2;"/>
     </g>
     <g id="line2d_8">
      <g>
       <use style="stroke:#000000;stroke-width:0.8;" x="156.627602" xlink:href="#mc0b40478ea" y="512.88601"/>
      </g>
     </g>
     <g id="line2d_9">
      <g>
       <use style="stroke:#000000;stroke-width:0.8;" x="156.627602" xlink:href="#mfe91d3047e" y="24.197115"/>
      </g>
     </g>
     <g id="text_3">
      <!-- −0.5 -->
      <g transform="translate(142.057914 525.504135)scale(0.12 -0.12)">
       <use xlink:href="#DejaVuSans-8722"/>
       <use x="83.789062" xlink:href="#DejaVuSans-48"/>
       <use x="147.412109" xlink:href="#DejaVuSans-46"/>
       <use x="179.199219" xlink:href="#DejaVuSans-53"/>
      </g>
     </g>
    </g>
    <g id="xtick_4">
     <g id="line2d_10">
      <path clip-path="url(#pfbdca92d3c)" d="M 205.99725 512.88601 
L 205.99725 24.197115 
" style="fill:none;stroke:#ffffff;stroke-linecap:round;stroke-width:2;"/>
     </g>
     <g id="line2d_11">
      <g>
       <use style="stroke:#000000;stroke-width:0.8;" x="205.99725" xlink:href="#mc0b40478ea" y="512.88601"/>
      </g>
     </g>
     <g id="line2d_12">
      <g>
       <use style="stroke:#000000;stroke-width:0.8;" x="205.99725" xlink:href="#mfe91d3047e" y="24.197115"/>
      </g>
     </g>
     <g id="text_4">
      <!-- 0.0 -->
      <g transform="translate(196.455375 525.504135)scale(0.12 -0.12)">
       <use xlink:href="#DejaVuSans-48"/>
       <use x="63.623047" xlink:href="#DejaVuSans-46"/>
       <use x="95.410156" xlink:href="#DejaVuSans-48"/>
      </g>
     </g>
    </g>
    <g id="xtick_5">
     <g id="line2d_13">
      <path clip-path="url(#pfbdca92d3c)" d="M 255.366897 512.88601 
L 255.366897 24.197115 
" style="fill:none;stroke:#ffffff;stroke-linecap:round;stroke-width:2;"/>
     </g>
     <g id="line2d_14">
      <g>
       <use style="stroke:#000000;stroke-width:0.8;" x="255.366897" xlink:href="#mc0b40478ea" y="512.88601"/>
      </g>
     </g>
     <g id="line2d_15">
      <g>
       <use style="stroke:#000000;stroke-width:0.8;" x="255.366897" xlink:href="#mfe91d3047e" y="24.197115"/>
      </g>
     </g>
     <g id="text_5">
      <!-- 0.5 -->
      <g transform="translate(245.825022 525.504135)scale(0.12 -0.12)">
       <use xlink:href="#DejaVuSans-48"/>
       <use x="63.623047" xlink:href="#DejaVuSans-46"/>
       <use x="95.410156" xlink:href="#DejaVuSans-53"/>
      </g>
     </g>
    </g>
    <g id="xtick_6">
     <g id="line2d_16">
      <path clip-path="url(#pfbdca92d3c)" d="M 304.736545 512.88601 
L 304.736545 24.197115 
" style="fill:none;stroke:#ffffff;stroke-linecap:round;stroke-width:2;"/>
     </g>
     <g id="line2d_17">
      <g>
       <use style="stroke:#000000;stroke-width:0.8;" x="304.736545" xlink:href="#mc0b40478ea" y="512.88601"/>
      </g>
     </g>
     <g id="line2d_18">
      <g>
       <use style="stroke:#000000;stroke-width:0.8;" x="304.736545" xlink:href="#mfe91d3047e" y="24.197115"/>
      </g>
     </g>
     <g id="text_6">
      <!-- 1.0 -->
      <g transform="translate(295.19467 525.504135)scale(0.12 -0.12)">
       <use xlink:href="#DejaVuSans-49"/>
       <use x="63.623047" xlink:href="#DejaVuSans-46"/>
       <use x="95.410156" xlink:href="#DejaVuSans-48"/>
      </g>
     </g>
    </g>
    <g id="xtick_7">
     <g id="line2d_19">
      <path clip-path="url(#pfbdca92d3c)" d="M 354.106192 512.88601 
L 354.106192 24.197115 
" style="fill:none;stroke:#ffffff;stroke-linecap:round;stroke-width:2;"/>
     </g>
     <g id="line2d_20">
      <g>
       <use style="stroke:#000000;stroke-width:0.8;" x="354.106192" xlink:href="#mc0b40478ea" y="512.88601"/>
      </g>
     </g>
     <g id="line2d_21">
      <g>
       <use style="stroke:#000000;stroke-width:0.8;" x="354.106192" xlink:href="#mfe91d3047e" y="24.197115"/>
      </g>
     </g>
     <g id="text_7">
      <!-- 1.5 -->
      <g transform="translate(344.564317 525.504135)scale(0.12 -0.12)">
       <use xlink:href="#DejaVuSans-49"/>
       <use x="63.623047" xlink:href="#DejaVuSans-46"/>
       <use x="95.410156" xlink:href="#DejaVuSans-53"/>
      </g>
     </g>
    </g>
    <g id="xtick_8">
     <g id="line2d_22">
      <path clip-path="url(#pfbdca92d3c)" d="M 403.47584 512.88601 
L 403.47584 24.197115 
" style="fill:none;stroke:#ffffff;stroke-linecap:round;stroke-width:2;"/>
     </g>
     <g id="line2d_23">
      <g>
       <use style="stroke:#000000;stroke-width:0.8;" x="403.47584" xlink:href="#mc0b40478ea" y="512.88601"/>
      </g>
     </g>
     <g id="line2d_24">
      <g>
       <use style="stroke:#000000;stroke-width:0.8;" x="403.47584" xlink:href="#mfe91d3047e" y="24.197115"/>
      </g>
     </g>
     <g id="text_8">
      <!-- 2.0 -->
      <g transform="translate(393.933965 525.504135)scale(0.12 -0.12)">
       <defs>
        <path d="M 19.1875 8.296875 
L 53.609375 8.296875 
L 53.609375 0 
L 7.328125 0 
L 7.328125 8.296875 
Q 12.9375 14.109375 22.625 23.890625 
Q 32.328125 33.6875 34.8125 36.53125 
Q 39.546875 41.84375 41.421875 45.53125 
Q 43.3125 49.21875 43.3125 52.78125 
Q 43.3125 58.59375 39.234375 62.25 
Q 35.15625 65.921875 28.609375 65.921875 
Q 23.96875 65.921875 18.8125 64.3125 
Q 13.671875 62.703125 7.8125 59.421875 
L 7.8125 69.390625 
Q 13.765625 71.78125 18.9375 73 
Q 24.125 74.21875 28.421875 74.21875 
Q 39.75 74.21875 46.484375 68.546875 
Q 53.21875 62.890625 53.21875 53.421875 
Q 53.21875 48.921875 51.53125 44.890625 
Q 49.859375 40.875 45.40625 35.40625 
Q 44.1875 33.984375 37.640625 27.21875 
Q 31.109375 20.453125 19.1875 8.296875 
z
" id="DejaVuSans-50"/>
       </defs>
       <use xlink:href="#DejaVuSans-50"/>
       <use x="63.623047" xlink:href="#DejaVuSans-46"/>
       <use x="95.410156" xlink:href="#DejaVuSans-48"/>
      </g>
     </g>
    </g>
    <g id="text_9">
     <!-- $\mu_{FO}-\mu_{O}$ (ppm, C$_\alpha$) -->
     <g transform="translate(142.81375 547.19976)scale(0.2 -0.2)">
      <defs>
       <path d="M -1.3125 -20.796875 
L 13.375 54.6875 
L 22.40625 54.6875 
L 15.765625 20.65625 
Q 15.578125 19.625 15.421875 18.359375 
Q 15.28125 17.09375 15.28125 15.828125 
Q 15.28125 11.28125 18.140625 8.828125 
Q 21 6.390625 26.3125 6.390625 
Q 33.546875 6.390625 37.984375 10.484375 
Q 42.4375 14.59375 44 22.796875 
L 50.203125 54.6875 
L 59.1875 54.6875 
L 51.03125 12.640625 
Q 50.828125 11.71875 50.75 11.03125 
Q 50.6875 10.359375 50.6875 9.8125 
Q 50.6875 8.296875 51.296875 7.59375 
Q 51.90625 6.890625 53.21875 6.890625 
Q 53.71875 6.890625 54.5625 7.125 
Q 55.421875 7.375 56.984375 8.015625 
L 55.609375 0.78125 
Q 53.46875 -0.296875 51.515625 -0.859375 
Q 49.5625 -1.421875 47.703125 -1.421875 
Q 44.484375 -1.421875 42.65625 0.625 
Q 40.828125 2.6875 40.828125 6.296875 
Q 38.09375 2.390625 34.296875 0.484375 
Q 30.515625 -1.421875 25.390625 -1.421875 
Q 20.84375 -1.421875 17.453125 0.671875 
Q 14.0625 2.78125 12.984375 6.203125 
L 7.71875 -20.796875 
z
" id="DejaVuSans-Oblique-956"/>
       <path d="M 16.890625 72.90625 
L 58.6875 72.90625 
L 57.078125 64.59375 
L 25.09375 64.59375 
L 20.90625 43.109375 
L 49.8125 43.109375 
L 48.1875 34.8125 
L 19.28125 34.8125 
L 12.5 0 
L 2.6875 0 
z
" id="DejaVuSans-Oblique-70"/>
       <path d="M 45.609375 66.21875 
Q 37.5 66.21875 31.296875 62.28125 
Q 25.09375 58.34375 20.515625 50.296875 
Q 17.578125 45.171875 16.03125 39.40625 
Q 14.5 33.640625 14.5 27.78125 
Q 14.5 17.625 19.359375 12.109375 
Q 24.21875 6.59375 33.109375 6.59375 
Q 41.109375 6.59375 47.375 10.5625 
Q 53.65625 14.546875 58.109375 22.40625 
Q 61.078125 27.6875 62.640625 33.46875 
Q 64.203125 39.265625 64.203125 45.015625 
Q 64.203125 55.125 59.3125 60.671875 
Q 54.4375 66.21875 45.609375 66.21875 
z
M 32.8125 -1.421875 
Q 19.390625 -1.421875 11.6875 6.53125 
Q 4 14.5 4 28.328125 
Q 4 36.234375 7 44.484375 
Q 10.015625 52.734375 15.28125 59.1875 
Q 21.484375 66.75 29.09375 70.484375 
Q 36.71875 74.21875 45.90625 74.21875 
Q 59.28125 74.21875 66.984375 66.328125 
Q 74.703125 58.453125 74.703125 44.828125 
Q 74.703125 36.421875 71.765625 28.3125 
Q 68.84375 20.21875 63.375 13.625 
Q 57.125 6 49.578125 2.28125 
Q 42.046875 -1.421875 32.8125 -1.421875 
z
" id="DejaVuSans-Oblique-79"/>
       <path id="DejaVuSans-32"/>
       <path d="M 31 75.875 
Q 24.46875 64.65625 21.28125 53.65625 
Q 18.109375 42.671875 18.109375 31.390625 
Q 18.109375 20.125 21.3125 9.0625 
Q 24.515625 -2 31 -13.1875 
L 23.1875 -13.1875 
Q 15.875 -1.703125 12.234375 9.375 
Q 8.59375 20.453125 8.59375 31.390625 
Q 8.59375 42.28125 12.203125 53.3125 
Q 15.828125 64.359375 23.1875 75.875 
z
" id="DejaVuSans-40"/>
       <path d="M 18.109375 8.203125 
L 18.109375 -20.796875 
L 9.078125 -20.796875 
L 9.078125 54.6875 
L 18.109375 54.6875 
L 18.109375 46.390625 
Q 20.953125 51.265625 25.265625 53.625 
Q 29.59375 56 35.59375 56 
Q 45.5625 56 51.78125 48.09375 
Q 58.015625 40.1875 58.015625 27.296875 
Q 58.015625 14.40625 51.78125 6.484375 
Q 45.5625 -1.421875 35.59375 -1.421875 
Q 29.59375 -1.421875 25.265625 0.953125 
Q 20.953125 3.328125 18.109375 8.203125 
z
M 48.6875 27.296875 
Q 48.6875 37.203125 44.609375 42.84375 
Q 40.53125 48.484375 33.40625 48.484375 
Q 26.265625 48.484375 22.1875 42.84375 
Q 18.109375 37.203125 18.109375 27.296875 
Q 18.109375 17.390625 22.1875 11.75 
Q 26.265625 6.109375 33.40625 6.109375 
Q 40.53125 6.109375 44.609375 11.75 
Q 48.6875 17.390625 48.6875 27.296875 
z
" id="DejaVuSans-112"/>
       <path d="M 52 44.1875 
Q 55.375 50.25 60.0625 53.125 
Q 64.75 56 71.09375 56 
Q 79.640625 56 84.28125 50.015625 
Q 88.921875 44.046875 88.921875 33.015625 
L 88.921875 0 
L 79.890625 0 
L 79.890625 32.71875 
Q 79.890625 40.578125 77.09375 44.375 
Q 74.3125 48.1875 68.609375 48.1875 
Q 61.625 48.1875 57.5625 43.546875 
Q 53.515625 38.921875 53.515625 30.90625 
L 53.515625 0 
L 44.484375 0 
L 44.484375 32.71875 
Q 44.484375 40.625 41.703125 44.40625 
Q 38.921875 48.1875 33.109375 48.1875 
Q 26.21875 48.1875 22.15625 43.53125 
Q 18.109375 38.875 18.109375 30.90625 
L 18.109375 0 
L 9.078125 0 
L 9.078125 54.6875 
L 18.109375 54.6875 
L 18.109375 46.1875 
Q 21.1875 51.21875 25.484375 53.609375 
Q 29.78125 56 35.6875 56 
Q 41.65625 56 45.828125 52.96875 
Q 50 49.953125 52 44.1875 
z
" id="DejaVuSans-109"/>
       <path d="M 11.71875 12.40625 
L 22.015625 12.40625 
L 22.015625 4 
L 14.015625 -11.625 
L 7.71875 -11.625 
L 11.71875 4 
z
" id="DejaVuSans-44"/>
       <path d="M 64.40625 67.28125 
L 64.40625 56.890625 
Q 59.421875 61.53125 53.78125 63.8125 
Q 48.140625 66.109375 41.796875 66.109375 
Q 29.296875 66.109375 22.65625 58.46875 
Q 16.015625 50.828125 16.015625 36.375 
Q 16.015625 21.96875 22.65625 14.328125 
Q 29.296875 6.6875 41.796875 6.6875 
Q 48.140625 6.6875 53.78125 8.984375 
Q 59.421875 11.28125 64.40625 15.921875 
L 64.40625 5.609375 
Q 59.234375 2.09375 53.4375 0.328125 
Q 47.65625 -1.421875 41.21875 -1.421875 
Q 24.65625 -1.421875 15.125 8.703125 
Q 5.609375 18.84375 5.609375 36.375 
Q 5.609375 53.953125 15.125 64.078125 
Q 24.65625 74.21875 41.21875 74.21875 
Q 47.75 74.21875 53.53125 72.484375 
Q 59.328125 70.75 64.40625 67.28125 
z
" id="DejaVuSans-67"/>
       <path d="M 40.921875 25.4375 
L 40.96875 36.71875 
Q 41.015625 48.25 32.328125 48.296875 
Q 25.828125 48.34375 21.78125 42.921875 
Q 16.703125 36.234375 14.984375 27.296875 
Q 12.890625 16.546875 15.53125 11.421875 
Q 18.265625 6.203125 24.171875 6.203125 
Q 30.71875 6.203125 36.234375 16.609375 
z
M 33.84375 55.90625 
Q 49.078125 56.15625 48.875 40.375 
Q 48.875 40.375 56.5 54.6875 
L 64.5 54.6875 
L 48.734375 25.046875 
L 48.578125 14.359375 
Q 48.578125 11.96875 49.90625 9.96875 
Q 51.421875 7.625 52.984375 7.625 
L 57.328125 7.625 
L 55.859375 0 
L 50.4375 0 
Q 45.84375 0 42.53125 4.109375 
Q 40.96875 6.15625 40.921875 10.453125 
Q 37.75 5.21875 32.28125 0.78125 
Q 29.6875 -1.265625 22.703125 -1.21875 
Q 11.28125 -1.125 7.125 6.203125 
Q 2.875 13.8125 5.515625 27.296875 
Q 8.34375 41.796875 15.765625 48.390625 
Q 24.125 55.765625 33.84375 55.90625 
z
" id="DejaVuSans-Oblique-945"/>
       <path d="M 8.015625 75.875 
L 15.828125 75.875 
Q 23.140625 64.359375 26.78125 53.3125 
Q 30.421875 42.28125 30.421875 31.390625 
Q 30.421875 20.453125 26.78125 9.375 
Q 23.140625 -1.703125 15.828125 -13.1875 
L 8.015625 -13.1875 
Q 14.5 -2 17.703125 9.0625 
Q 20.90625 20.125 20.90625 31.390625 
Q 20.90625 42.671875 17.703125 53.65625 
Q 14.5 64.65625 8.015625 75.875 
z
" id="DejaVuSans-41"/>
      </defs>
      <use transform="translate(0 0.125)" xlink:href="#DejaVuSans-Oblique-956"/>
      <use transform="translate(63.623047 -16.28125)scale(0.7)" xlink:href="#DejaVuSans-Oblique-70"/>
      <use transform="translate(103.886719 -16.28125)scale(0.7)" xlink:href="#DejaVuSans-Oblique-79"/>
      <use transform="translate(181.201172 0.125)" xlink:href="#DejaVuSans-8722"/>
      <use transform="translate(284.472656 0.125)" xlink:href="#DejaVuSans-Oblique-956"/>
      <use transform="translate(348.095703 -16.28125)scale(0.7)" xlink:href="#DejaVuSans-Oblique-79"/>
      <use transform="translate(405.927734 0.125)" xlink:href="#DejaVuSans-32"/>
      <use transform="translate(437.714844 0.125)" xlink:href="#DejaVuSans-40"/>
      <use transform="translate(476.728516 0.125)" xlink:href="#DejaVuSans-112"/>
      <use transform="translate(540.205078 0.125)" xlink:href="#DejaVuSans-112"/>
      <use transform="translate(603.681641 0.125)" xlink:href="#DejaVuSans-109"/>
      <use transform="translate(701.09375 0.125)" xlink:href="#DejaVuSans-44"/>
      <use transform="translate(732.880859 0.125)" xlink:href="#DejaVuSans-32"/>
      <use transform="translate(764.667969 0.125)" xlink:href="#DejaVuSans-67"/>
      <use transform="translate(835.449219 -16.28125)scale(0.7)" xlink:href="#DejaVuSans-Oblique-945"/>
      <use transform="translate(884.326172 0.125)" xlink:href="#DejaVuSans-41"/>
     </g>
    </g>
   </g>
   <g id="matplotlib.axis_2">
    <g id="ytick_1">
     <g id="text_10">
      <!--  T112 -->
      <g transform="translate(3.879615 510.362625)scale(0.12 -0.12)">
       <defs>
        <path d="M -0.296875 72.90625 
L 61.375 72.90625 
L 61.375 64.59375 
L 35.5 64.59375 
L 35.5 0 
L 25.59375 0 
L 25.59375 64.59375 
L -0.296875 64.59375 
z
" id="DejaVuSans-84"/>
       </defs>
       <use xlink:href="#DejaVuSans-32"/>
       <use x="31.787109" xlink:href="#DejaVuSans-84"/>
       <use x="92.871094" xlink:href="#DejaVuSans-49"/>
       <use x="156.494141" xlink:href="#DejaVuSans-49"/>
       <use x="220.117188" xlink:href="#DejaVuSans-50"/>
      </g>
     </g>
    </g>
    <g id="ytick_2">
     <g id="text_11">
      <!--  A111 -->
      <g transform="translate(3.00024 497.378137)scale(0.12 -0.12)">
       <defs>
        <path d="M 34.1875 63.1875 
L 20.796875 26.90625 
L 47.609375 26.90625 
z
M 28.609375 72.90625 
L 39.796875 72.90625 
L 67.578125 0 
L 57.328125 0 
L 50.6875 18.703125 
L 17.828125 18.703125 
L 11.1875 0 
L 0.78125 0 
z
" id="DejaVuSans-65"/>
       </defs>
       <use xlink:href="#DejaVuSans-32"/>
       <use x="31.787109" xlink:href="#DejaVuSans-65"/>
       <use x="100.195312" xlink:href="#DejaVuSans-49"/>
       <use x="163.818359" xlink:href="#DejaVuSans-49"/>
       <use x="227.441406" xlink:href="#DejaVuSans-49"/>
      </g>
     </g>
    </g>
    <g id="ytick_3">
     <g id="text_12">
      <!--  T107 -->
      <g transform="translate(3.879615 484.39365)scale(0.12 -0.12)">
       <defs>
        <path d="M 8.203125 72.90625 
L 55.078125 72.90625 
L 55.078125 68.703125 
L 28.609375 0 
L 18.3125 0 
L 43.21875 64.59375 
L 8.203125 64.59375 
z
" id="DejaVuSans-55"/>
       </defs>
       <use xlink:href="#DejaVuSans-32"/>
       <use x="31.787109" xlink:href="#DejaVuSans-84"/>
       <use x="92.871094" xlink:href="#DejaVuSans-49"/>
       <use x="156.494141" xlink:href="#DejaVuSans-48"/>
       <use x="220.117188" xlink:href="#DejaVuSans-55"/>
      </g>
     </g>
    </g>
    <g id="ytick_4">
     <g id="text_13">
      <!--  S102 -->
      <g transform="translate(3.590865 471.409162)scale(0.12 -0.12)">
       <defs>
        <path d="M 53.515625 70.515625 
L 53.515625 60.890625 
Q 47.90625 63.578125 42.921875 64.890625 
Q 37.9375 66.21875 33.296875 66.21875 
Q 25.25 66.21875 20.875 63.09375 
Q 16.5 59.96875 16.5 54.203125 
Q 16.5 49.359375 19.40625 46.890625 
Q 22.3125 44.4375 30.421875 42.921875 
L 36.375 41.703125 
Q 47.40625 39.59375 52.65625 34.296875 
Q 57.90625 29 57.90625 20.125 
Q 57.90625 9.515625 50.796875 4.046875 
Q 43.703125 -1.421875 29.984375 -1.421875 
Q 24.8125 -1.421875 18.96875 -0.25 
Q 13.140625 0.921875 6.890625 3.21875 
L 6.890625 13.375 
Q 12.890625 10.015625 18.65625 8.296875 
Q 24.421875 6.59375 29.984375 6.59375 
Q 38.421875 6.59375 43.015625 9.90625 
Q 47.609375 13.234375 47.609375 19.390625 
Q 47.609375 24.75 44.3125 27.78125 
Q 41.015625 30.8125 33.5 32.328125 
L 27.484375 33.5 
Q 16.453125 35.6875 11.515625 40.375 
Q 6.59375 45.0625 6.59375 53.421875 
Q 6.59375 63.09375 13.40625 68.65625 
Q 20.21875 74.21875 32.171875 74.21875 
Q 37.3125 74.21875 42.625 73.28125 
Q 47.953125 72.359375 53.515625 70.515625 
z
" id="DejaVuSans-83"/>
       </defs>
       <use xlink:href="#DejaVuSans-32"/>
       <use x="31.787109" xlink:href="#DejaVuSans-83"/>
       <use x="95.263672" xlink:href="#DejaVuSans-49"/>
       <use x="158.886719" xlink:href="#DejaVuSans-48"/>
       <use x="222.509766" xlink:href="#DejaVuSans-50"/>
      </g>
     </g>
    </g>
    <g id="ytick_5">
     <g id="text_14">
      <!--  G99 -->
      <g transform="translate(9.545865 458.424675)scale(0.12 -0.12)">
       <defs>
        <path d="M 59.515625 10.40625 
L 59.515625 29.984375 
L 43.40625 29.984375 
L 43.40625 38.09375 
L 69.28125 38.09375 
L 69.28125 6.78125 
Q 63.578125 2.734375 56.6875 0.65625 
Q 49.8125 -1.421875 42 -1.421875 
Q 24.90625 -1.421875 15.25 8.5625 
Q 5.609375 18.5625 5.609375 36.375 
Q 5.609375 54.25 15.25 64.234375 
Q 24.90625 74.21875 42 74.21875 
Q 49.125 74.21875 55.546875 72.453125 
Q 61.96875 70.703125 67.390625 67.28125 
L 67.390625 56.78125 
Q 61.921875 61.421875 55.765625 63.765625 
Q 49.609375 66.109375 42.828125 66.109375 
Q 29.4375 66.109375 22.71875 58.640625 
Q 16.015625 51.171875 16.015625 36.375 
Q 16.015625 21.625 22.71875 14.15625 
Q 29.4375 6.6875 42.828125 6.6875 
Q 48.046875 6.6875 52.140625 7.59375 
Q 56.25 8.5 59.515625 10.40625 
z
" id="DejaVuSans-71"/>
        <path d="M 10.984375 1.515625 
L 10.984375 10.5 
Q 14.703125 8.734375 18.5 7.8125 
Q 22.3125 6.890625 25.984375 6.890625 
Q 35.75 6.890625 40.890625 13.453125 
Q 46.046875 20.015625 46.78125 33.40625 
Q 43.953125 29.203125 39.59375 26.953125 
Q 35.25 24.703125 29.984375 24.703125 
Q 19.046875 24.703125 12.671875 31.3125 
Q 6.296875 37.9375 6.296875 49.421875 
Q 6.296875 60.640625 12.9375 67.421875 
Q 19.578125 74.21875 30.609375 74.21875 
Q 43.265625 74.21875 49.921875 64.515625 
Q 56.59375 54.828125 56.59375 36.375 
Q 56.59375 19.140625 48.40625 8.859375 
Q 40.234375 -1.421875 26.421875 -1.421875 
Q 22.703125 -1.421875 18.890625 -0.6875 
Q 15.09375 0.046875 10.984375 1.515625 
z
M 30.609375 32.421875 
Q 37.25 32.421875 41.125 36.953125 
Q 45.015625 41.5 45.015625 49.421875 
Q 45.015625 57.28125 41.125 61.84375 
Q 37.25 66.40625 30.609375 66.40625 
Q 23.96875 66.40625 20.09375 61.84375 
Q 16.21875 57.28125 16.21875 49.421875 
Q 16.21875 41.5 20.09375 36.953125 
Q 23.96875 32.421875 30.609375 32.421875 
z
" id="DejaVuSans-57"/>
       </defs>
       <use xlink:href="#DejaVuSans-32"/>
       <use x="31.787109" xlink:href="#DejaVuSans-71"/>
       <use x="109.277344" xlink:href="#DejaVuSans-57"/>
       <use x="172.900391" xlink:href="#DejaVuSans-57"/>
      </g>
     </g>
    </g>
    <g id="ytick_6">
     <g id="text_15">
      <!--  A98 -->
      <g transform="translate(10.63524 445.440187)scale(0.12 -0.12)">
       <defs>
        <path d="M 31.78125 34.625 
Q 24.75 34.625 20.71875 30.859375 
Q 16.703125 27.09375 16.703125 20.515625 
Q 16.703125 13.921875 20.71875 10.15625 
Q 24.75 6.390625 31.78125 6.390625 
Q 38.8125 6.390625 42.859375 10.171875 
Q 46.921875 13.96875 46.921875 20.515625 
Q 46.921875 27.09375 42.890625 30.859375 
Q 38.875 34.625 31.78125 34.625 
z
M 21.921875 38.8125 
Q 15.578125 40.375 12.03125 44.71875 
Q 8.5 49.078125 8.5 55.328125 
Q 8.5 64.0625 14.71875 69.140625 
Q 20.953125 74.21875 31.78125 74.21875 
Q 42.671875 74.21875 48.875 69.140625 
Q 55.078125 64.0625 55.078125 55.328125 
Q 55.078125 49.078125 51.53125 44.71875 
Q 48 40.375 41.703125 38.8125 
Q 48.828125 37.15625 52.796875 32.3125 
Q 56.78125 27.484375 56.78125 20.515625 
Q 56.78125 9.90625 50.3125 4.234375 
Q 43.84375 -1.421875 31.78125 -1.421875 
Q 19.734375 -1.421875 13.25 4.234375 
Q 6.78125 9.90625 6.78125 20.515625 
Q 6.78125 27.484375 10.78125 32.3125 
Q 14.796875 37.15625 21.921875 38.8125 
z
M 18.3125 54.390625 
Q 18.3125 48.734375 21.84375 45.5625 
Q 25.390625 42.390625 31.78125 42.390625 
Q 38.140625 42.390625 41.71875 45.5625 
Q 45.3125 48.734375 45.3125 54.390625 
Q 45.3125 60.0625 41.71875 63.234375 
Q 38.140625 66.40625 31.78125 66.40625 
Q 25.390625 66.40625 21.84375 63.234375 
Q 18.3125 60.0625 18.3125 54.390625 
z
" id="DejaVuSans-56"/>
       </defs>
       <use xlink:href="#DejaVuSans-32"/>
       <use x="31.787109" xlink:href="#DejaVuSans-65"/>
       <use x="100.195312" xlink:href="#DejaVuSans-57"/>
       <use x="163.818359" xlink:href="#DejaVuSans-56"/>
      </g>
     </g>
    </g>
    <g id="ytick_7">
     <g id="text_16">
      <!--  W87 -->
      <g transform="translate(6.97899 432.455699)scale(0.12 -0.12)">
       <defs>
        <path d="M 3.328125 72.90625 
L 13.28125 72.90625 
L 28.609375 11.28125 
L 43.890625 72.90625 
L 54.984375 72.90625 
L 70.3125 11.28125 
L 85.59375 72.90625 
L 95.609375 72.90625 
L 77.296875 0 
L 64.890625 0 
L 49.515625 63.28125 
L 33.984375 0 
L 21.578125 0 
z
" id="DejaVuSans-87"/>
       </defs>
       <use xlink:href="#DejaVuSans-32"/>
       <use x="31.787109" xlink:href="#DejaVuSans-87"/>
       <use x="130.664062" xlink:href="#DejaVuSans-56"/>
       <use x="194.287109" xlink:href="#DejaVuSans-55"/>
      </g>
     </g>
    </g>
    <g id="ytick_8">
     <g id="text_17">
      <!--  T85 -->
      <g transform="translate(11.514615 419.471212)scale(0.12 -0.12)">
       <use xlink:href="#DejaVuSans-32"/>
       <use x="31.787109" xlink:href="#DejaVuSans-84"/>
       <use x="92.871094" xlink:href="#DejaVuSans-56"/>
       <use x="156.494141" xlink:href="#DejaVuSans-53"/>
      </g>
     </g>
    </g>
    <g id="ytick_9">
     <g id="text_18">
      <!--  Y82 -->
      <g transform="translate(11.514615 406.486724)scale(0.12 -0.12)">
       <defs>
        <path d="M -0.203125 72.90625 
L 10.40625 72.90625 
L 30.609375 42.921875 
L 50.6875 72.90625 
L 61.28125 72.90625 
L 35.5 34.71875 
L 35.5 0 
L 25.59375 0 
L 25.59375 34.71875 
z
" id="DejaVuSans-89"/>
       </defs>
       <use xlink:href="#DejaVuSans-32"/>
       <use x="31.787109" xlink:href="#DejaVuSans-89"/>
       <use x="92.871094" xlink:href="#DejaVuSans-56"/>
       <use x="156.494141" xlink:href="#DejaVuSans-50"/>
      </g>
     </g>
    </g>
    <g id="ytick_10">
     <g id="text_19">
      <!--  D80 -->
      <g transform="translate(9.60399 393.502237)scale(0.12 -0.12)">
       <defs>
        <path d="M 19.671875 64.796875 
L 19.671875 8.109375 
L 31.59375 8.109375 
Q 46.6875 8.109375 53.6875 14.9375 
Q 60.6875 21.78125 60.6875 36.53125 
Q 60.6875 51.171875 53.6875 57.984375 
Q 46.6875 64.796875 31.59375 64.796875 
z
M 9.8125 72.90625 
L 30.078125 72.90625 
Q 51.265625 72.90625 61.171875 64.09375 
Q 71.09375 55.28125 71.09375 36.53125 
Q 71.09375 17.671875 61.125 8.828125 
Q 51.171875 0 30.078125 0 
L 9.8125 0 
z
" id="DejaVuSans-68"/>
       </defs>
       <use xlink:href="#DejaVuSans-32"/>
       <use x="31.787109" xlink:href="#DejaVuSans-68"/>
       <use x="108.789062" xlink:href="#DejaVuSans-56"/>
       <use x="172.412109" xlink:href="#DejaVuSans-48"/>
      </g>
     </g>
    </g>
    <g id="ytick_11">
     <g id="text_20">
      <!--  G79 -->
      <g transform="translate(9.545865 380.517749)scale(0.12 -0.12)">
       <use xlink:href="#DejaVuSans-32"/>
       <use x="31.787109" xlink:href="#DejaVuSans-71"/>
       <use x="109.277344" xlink:href="#DejaVuSans-55"/>
       <use x="172.900391" xlink:href="#DejaVuSans-57"/>
      </g>
     </g>
    </g>
    <g id="ytick_12">
     <g id="text_21">
      <!--  Y78 -->
      <g transform="translate(11.514615 367.533262)scale(0.12 -0.12)">
       <use xlink:href="#DejaVuSans-32"/>
       <use x="31.787109" xlink:href="#DejaVuSans-89"/>
       <use x="92.871094" xlink:href="#DejaVuSans-55"/>
       <use x="156.494141" xlink:href="#DejaVuSans-56"/>
      </g>
     </g>
    </g>
    <g id="ytick_13">
     <g id="text_22">
      <!--  G77 -->
      <g transform="translate(9.545865 354.548774)scale(0.12 -0.12)">
       <use xlink:href="#DejaVuSans-32"/>
       <use x="31.787109" xlink:href="#DejaVuSans-71"/>
       <use x="109.277344" xlink:href="#DejaVuSans-55"/>
       <use x="172.900391" xlink:href="#DejaVuSans-55"/>
      </g>
     </g>
    </g>
    <g id="ytick_14">
     <g id="text_23">
      <!--  V76 -->
      <g transform="translate(10.63524 341.564287)scale(0.12 -0.12)">
       <defs>
        <path d="M 28.609375 0 
L 0.78125 72.90625 
L 11.078125 72.90625 
L 34.1875 11.53125 
L 57.328125 72.90625 
L 67.578125 72.90625 
L 39.796875 0 
z
" id="DejaVuSans-86"/>
        <path d="M 33.015625 40.375 
Q 26.375 40.375 22.484375 35.828125 
Q 18.609375 31.296875 18.609375 23.390625 
Q 18.609375 15.53125 22.484375 10.953125 
Q 26.375 6.390625 33.015625 6.390625 
Q 39.65625 6.390625 43.53125 10.953125 
Q 47.40625 15.53125 47.40625 23.390625 
Q 47.40625 31.296875 43.53125 35.828125 
Q 39.65625 40.375 33.015625 40.375 
z
M 52.59375 71.296875 
L 52.59375 62.3125 
Q 48.875 64.0625 45.09375 64.984375 
Q 41.3125 65.921875 37.59375 65.921875 
Q 27.828125 65.921875 22.671875 59.328125 
Q 17.53125 52.734375 16.796875 39.40625 
Q 19.671875 43.65625 24.015625 45.921875 
Q 28.375 48.1875 33.59375 48.1875 
Q 44.578125 48.1875 50.953125 41.515625 
Q 57.328125 34.859375 57.328125 23.390625 
Q 57.328125 12.15625 50.6875 5.359375 
Q 44.046875 -1.421875 33.015625 -1.421875 
Q 20.359375 -1.421875 13.671875 8.265625 
Q 6.984375 17.96875 6.984375 36.375 
Q 6.984375 53.65625 15.1875 63.9375 
Q 23.390625 74.21875 37.203125 74.21875 
Q 40.921875 74.21875 44.703125 73.484375 
Q 48.484375 72.75 52.59375 71.296875 
z
" id="DejaVuSans-54"/>
       </defs>
       <use xlink:href="#DejaVuSans-32"/>
       <use x="31.787109" xlink:href="#DejaVuSans-86"/>
       <use x="100.195312" xlink:href="#DejaVuSans-55"/>
       <use x="163.818359" xlink:href="#DejaVuSans-54"/>
      </g>
     </g>
    </g>
    <g id="ytick_15">
     <g id="text_24">
      <!--  T75 -->
      <g transform="translate(11.514615 328.579799)scale(0.12 -0.12)">
       <use xlink:href="#DejaVuSans-32"/>
       <use x="31.787109" xlink:href="#DejaVuSans-84"/>
       <use x="92.871094" xlink:href="#DejaVuSans-55"/>
       <use x="156.494141" xlink:href="#DejaVuSans-53"/>
      </g>
     </g>
    </g>
    <g id="ytick_16">
     <g id="text_25">
      <!--  T74 -->
      <g transform="translate(11.514615 315.595312)scale(0.12 -0.12)">
       <defs>
        <path d="M 37.796875 64.3125 
L 12.890625 25.390625 
L 37.796875 25.390625 
z
M 35.203125 72.90625 
L 47.609375 72.90625 
L 47.609375 25.390625 
L 58.015625 25.390625 
L 58.015625 17.1875 
L 47.609375 17.1875 
L 47.609375 0 
L 37.796875 0 
L 37.796875 17.1875 
L 4.890625 17.1875 
L 4.890625 26.703125 
z
" id="DejaVuSans-52"/>
       </defs>
       <use xlink:href="#DejaVuSans-32"/>
       <use x="31.787109" xlink:href="#DejaVuSans-84"/>
       <use x="92.871094" xlink:href="#DejaVuSans-55"/>
       <use x="156.494141" xlink:href="#DejaVuSans-52"/>
      </g>
     </g>
    </g>
    <g id="ytick_17">
     <g id="text_26">
      <!--  A73 -->
      <g transform="translate(10.63524 302.610824)scale(0.12 -0.12)">
       <defs>
        <path d="M 40.578125 39.3125 
Q 47.65625 37.796875 51.625 33 
Q 55.609375 28.21875 55.609375 21.1875 
Q 55.609375 10.40625 48.1875 4.484375 
Q 40.765625 -1.421875 27.09375 -1.421875 
Q 22.515625 -1.421875 17.65625 -0.515625 
Q 12.796875 0.390625 7.625 2.203125 
L 7.625 11.71875 
Q 11.71875 9.328125 16.59375 8.109375 
Q 21.484375 6.890625 26.8125 6.890625 
Q 36.078125 6.890625 40.9375 10.546875 
Q 45.796875 14.203125 45.796875 21.1875 
Q 45.796875 27.640625 41.28125 31.265625 
Q 36.765625 34.90625 28.71875 34.90625 
L 20.21875 34.90625 
L 20.21875 43.015625 
L 29.109375 43.015625 
Q 36.375 43.015625 40.234375 45.921875 
Q 44.09375 48.828125 44.09375 54.296875 
Q 44.09375 59.90625 40.109375 62.90625 
Q 36.140625 65.921875 28.71875 65.921875 
Q 24.65625 65.921875 20.015625 65.03125 
Q 15.375 64.15625 9.8125 62.3125 
L 9.8125 71.09375 
Q 15.4375 72.65625 20.34375 73.4375 
Q 25.25 74.21875 29.59375 74.21875 
Q 40.828125 74.21875 47.359375 69.109375 
Q 53.90625 64.015625 53.90625 55.328125 
Q 53.90625 49.265625 50.4375 45.09375 
Q 46.96875 40.921875 40.578125 39.3125 
z
" id="DejaVuSans-51"/>
       </defs>
       <use xlink:href="#DejaVuSans-32"/>
       <use x="31.787109" xlink:href="#DejaVuSans-65"/>
       <use x="100.195312" xlink:href="#DejaVuSans-55"/>
       <use x="163.818359" xlink:href="#DejaVuSans-51"/>
      </g>
     </g>
    </g>
    <g id="ytick_18">
     <g id="text_27">
      <!--  T72 -->
      <g transform="translate(11.514615 289.626336)scale(0.12 -0.12)">
       <use xlink:href="#DejaVuSans-32"/>
       <use x="31.787109" xlink:href="#DejaVuSans-84"/>
       <use x="92.871094" xlink:href="#DejaVuSans-55"/>
       <use x="156.494141" xlink:href="#DejaVuSans-50"/>
      </g>
     </g>
    </g>
    <g id="ytick_19">
     <g id="text_28">
      <!--  E71 -->
      <g transform="translate(11.26149 276.641849)scale(0.12 -0.12)">
       <defs>
        <path d="M 9.8125 72.90625 
L 55.90625 72.90625 
L 55.90625 64.59375 
L 19.671875 64.59375 
L 19.671875 43.015625 
L 54.390625 43.015625 
L 54.390625 34.71875 
L 19.671875 34.71875 
L 19.671875 8.296875 
L 56.78125 8.296875 
L 56.78125 0 
L 9.8125 0 
z
" id="DejaVuSans-69"/>
       </defs>
       <use xlink:href="#DejaVuSans-32"/>
       <use x="31.787109" xlink:href="#DejaVuSans-69"/>
       <use x="94.970703" xlink:href="#DejaVuSans-55"/>
       <use x="158.59375" xlink:href="#DejaVuSans-49"/>
      </g>
     </g>
    </g>
    <g id="ytick_20">
     <g id="text_29">
      <!--  V70 -->
      <g transform="translate(10.63524 263.657361)scale(0.12 -0.12)">
       <use xlink:href="#DejaVuSans-32"/>
       <use x="31.787109" xlink:href="#DejaVuSans-86"/>
       <use x="100.195312" xlink:href="#DejaVuSans-55"/>
       <use x="163.818359" xlink:href="#DejaVuSans-48"/>
      </g>
     </g>
    </g>
    <g id="ytick_21">
     <g id="text_30">
      <!--  S69 -->
      <g transform="translate(11.225865 250.672874)scale(0.12 -0.12)">
       <use xlink:href="#DejaVuSans-32"/>
       <use x="31.787109" xlink:href="#DejaVuSans-83"/>
       <use x="95.263672" xlink:href="#DejaVuSans-54"/>
       <use x="158.886719" xlink:href="#DejaVuSans-57"/>
      </g>
     </g>
    </g>
    <g id="ytick_22">
     <g id="text_31">
      <!--  W68 -->
      <g transform="translate(6.97899 237.688386)scale(0.12 -0.12)">
       <use xlink:href="#DejaVuSans-32"/>
       <use x="31.787109" xlink:href="#DejaVuSans-87"/>
       <use x="130.664062" xlink:href="#DejaVuSans-54"/>
       <use x="194.287109" xlink:href="#DejaVuSans-56"/>
      </g>
     </g>
    </g>
    <g id="ytick_23">
     <g id="text_32">
      <!--  W67 -->
      <g transform="translate(6.97899 224.703899)scale(0.12 -0.12)">
       <use xlink:href="#DejaVuSans-32"/>
       <use x="31.787109" xlink:href="#DejaVuSans-87"/>
       <use x="130.664062" xlink:href="#DejaVuSans-54"/>
       <use x="194.287109" xlink:href="#DejaVuSans-55"/>
      </g>
     </g>
    </g>
    <g id="ytick_24">
     <g id="text_33">
      <!--  R64 -->
      <g transform="translate(10.505865 211.719411)scale(0.12 -0.12)">
       <defs>
        <path d="M 44.390625 34.1875 
Q 47.5625 33.109375 50.5625 29.59375 
Q 53.5625 26.078125 56.59375 19.921875 
L 66.609375 0 
L 56 0 
L 46.6875 18.703125 
Q 43.0625 26.03125 39.671875 28.421875 
Q 36.28125 30.8125 30.421875 30.8125 
L 19.671875 30.8125 
L 19.671875 0 
L 9.8125 0 
L 9.8125 72.90625 
L 32.078125 72.90625 
Q 44.578125 72.90625 50.734375 67.671875 
Q 56.890625 62.453125 56.890625 51.90625 
Q 56.890625 45.015625 53.6875 40.46875 
Q 50.484375 35.9375 44.390625 34.1875 
z
M 19.671875 64.796875 
L 19.671875 38.921875 
L 32.078125 38.921875 
Q 39.203125 38.921875 42.84375 42.21875 
Q 46.484375 45.515625 46.484375 51.90625 
Q 46.484375 58.296875 42.84375 61.546875 
Q 39.203125 64.796875 32.078125 64.796875 
z
" id="DejaVuSans-82"/>
       </defs>
       <use xlink:href="#DejaVuSans-32"/>
       <use x="31.787109" xlink:href="#DejaVuSans-82"/>
       <use x="101.269531" xlink:href="#DejaVuSans-54"/>
       <use x="164.892578" xlink:href="#DejaVuSans-52"/>
      </g>
     </g>
    </g>
    <g id="ytick_25">
     <g id="text_34">
      <!--  Y62 -->
      <g transform="translate(11.514615 198.734924)scale(0.12 -0.12)">
       <use xlink:href="#DejaVuSans-32"/>
       <use x="31.787109" xlink:href="#DejaVuSans-89"/>
       <use x="92.871094" xlink:href="#DejaVuSans-54"/>
       <use x="156.494141" xlink:href="#DejaVuSans-50"/>
      </g>
     </g>
    </g>
    <g id="ytick_26">
     <g id="text_35">
      <!--  T61 -->
      <g transform="translate(11.514615 185.750436)scale(0.12 -0.12)">
       <use xlink:href="#DejaVuSans-32"/>
       <use x="31.787109" xlink:href="#DejaVuSans-84"/>
       <use x="92.871094" xlink:href="#DejaVuSans-54"/>
       <use x="156.494141" xlink:href="#DejaVuSans-49"/>
      </g>
     </g>
    </g>
    <g id="ytick_27">
     <g id="text_36">
      <!--  L59 -->
      <g transform="translate(12.15774 172.765948)scale(0.12 -0.12)">
       <defs>
        <path d="M 9.8125 72.90625 
L 19.671875 72.90625 
L 19.671875 8.296875 
L 55.171875 8.296875 
L 55.171875 0 
L 9.8125 0 
z
" id="DejaVuSans-76"/>
       </defs>
       <use xlink:href="#DejaVuSans-32"/>
       <use x="31.787109" xlink:href="#DejaVuSans-76"/>
       <use x="87.5" xlink:href="#DejaVuSans-53"/>
       <use x="151.123047" xlink:href="#DejaVuSans-57"/>
      </g>
     </g>
    </g>
    <g id="ytick_28">
     <g id="text_37">
      <!--  A57 -->
      <g transform="translate(10.63524 159.781461)scale(0.12 -0.12)">
       <use xlink:href="#DejaVuSans-32"/>
       <use x="31.787109" xlink:href="#DejaVuSans-65"/>
       <use x="100.195312" xlink:href="#DejaVuSans-53"/>
       <use x="163.818359" xlink:href="#DejaVuSans-55"/>
      </g>
     </g>
    </g>
    <g id="ytick_29">
     <g id="text_38">
      <!--  G56 -->
      <g transform="translate(9.545865 146.796973)scale(0.12 -0.12)">
       <use xlink:href="#DejaVuSans-32"/>
       <use x="31.787109" xlink:href="#DejaVuSans-71"/>
       <use x="109.277344" xlink:href="#DejaVuSans-53"/>
       <use x="172.900391" xlink:href="#DejaVuSans-54"/>
      </g>
     </g>
    </g>
    <g id="ytick_30">
     <g id="text_39">
      <!--  G53 -->
      <g transform="translate(9.545865 133.812486)scale(0.12 -0.12)">
       <use xlink:href="#DejaVuSans-32"/>
       <use x="31.787109" xlink:href="#DejaVuSans-71"/>
       <use x="109.277344" xlink:href="#DejaVuSans-53"/>
       <use x="172.900391" xlink:href="#DejaVuSans-51"/>
      </g>
     </g>
    </g>
    <g id="ytick_31">
     <g id="text_40">
      <!--  E51 -->
      <g transform="translate(11.26149 120.827998)scale(0.12 -0.12)">
       <use xlink:href="#DejaVuSans-32"/>
       <use x="31.787109" xlink:href="#DejaVuSans-69"/>
       <use x="94.970703" xlink:href="#DejaVuSans-53"/>
       <use x="158.59375" xlink:href="#DejaVuSans-49"/>
      </g>
     </g>
    </g>
    <g id="ytick_32">
     <g id="text_41">
      <!--  A50 -->
      <g transform="translate(10.63524 107.843511)scale(0.12 -0.12)">
       <use xlink:href="#DejaVuSans-32"/>
       <use x="31.787109" xlink:href="#DejaVuSans-65"/>
       <use x="100.195312" xlink:href="#DejaVuSans-53"/>
       <use x="163.818359" xlink:href="#DejaVuSans-48"/>
      </g>
     </g>
    </g>
    <g id="ytick_33">
     <g id="text_42">
      <!--  V48 -->
      <g transform="translate(10.63524 94.859023)scale(0.12 -0.12)">
       <use xlink:href="#DejaVuSans-32"/>
       <use x="31.787109" xlink:href="#DejaVuSans-86"/>
       <use x="100.195312" xlink:href="#DejaVuSans-52"/>
       <use x="163.818359" xlink:href="#DejaVuSans-56"/>
      </g>
     </g>
    </g>
    <g id="ytick_34">
     <g id="text_43">
      <!--  S44 -->
      <g transform="translate(11.225865 81.874536)scale(0.12 -0.12)">
       <use xlink:href="#DejaVuSans-32"/>
       <use x="31.787109" xlink:href="#DejaVuSans-83"/>
       <use x="95.263672" xlink:href="#DejaVuSans-52"/>
       <use x="158.886719" xlink:href="#DejaVuSans-52"/>
      </g>
     </g>
    </g>
    <g id="ytick_35">
     <g id="text_44">
      <!--  A42 -->
      <g transform="translate(10.63524 68.890048)scale(0.12 -0.12)">
       <use xlink:href="#DejaVuSans-32"/>
       <use x="31.787109" xlink:href="#DejaVuSans-65"/>
       <use x="100.195312" xlink:href="#DejaVuSans-52"/>
       <use x="163.818359" xlink:href="#DejaVuSans-50"/>
      </g>
     </g>
    </g>
    <g id="ytick_36">
     <g id="text_45">
      <!--  I38 -->
      <g transform="translate(15.30399 55.905561)scale(0.12 -0.12)">
       <defs>
        <path d="M 9.8125 72.90625 
L 19.671875 72.90625 
L 19.671875 0 
L 9.8125 0 
z
" id="DejaVuSans-73"/>
       </defs>
       <use xlink:href="#DejaVuSans-32"/>
       <use x="31.787109" xlink:href="#DejaVuSans-73"/>
       <use x="61.279297" xlink:href="#DejaVuSans-51"/>
       <use x="124.902344" xlink:href="#DejaVuSans-56"/>
      </g>
     </g>
    </g>
    <g id="ytick_37">
     <g id="text_46">
      <!--  T33 -->
      <g transform="translate(11.514615 42.921073)scale(0.12 -0.12)">
       <use xlink:href="#DejaVuSans-32"/>
       <use x="31.787109" xlink:href="#DejaVuSans-84"/>
       <use x="92.871094" xlink:href="#DejaVuSans-51"/>
       <use x="156.494141" xlink:href="#DejaVuSans-51"/>
      </g>
     </g>
    </g>
   </g>
   <g id="patch_3">
    <path clip-path="url(#pfbdca92d3c)" d="M 186.24939 512.88601 
L 186.24939 -14660.90418 
L 225.745109 -14660.90418 
L 225.745109 512.88601 
z
" style="fill:#2ca02c;opacity:0.5;stroke:#2ca02c;stroke-linejoin:miter;"/>
   </g>
   <g id="LineCollection_1">
    <path clip-path="url(#pfbdca92d3c)" d="M 152.639348 505.803562 
L 171.554628 505.803562 
" style="fill:none;stroke:#000000;stroke-width:1.5;"/>
   </g>
   <g id="LineCollection_2">
    <path clip-path="url(#pfbdca92d3c)" d="M 158.573334 505.803562 
L 165.413324 505.803562 
" style="fill:none;stroke:#000000;stroke-width:3;"/>
   </g>
   <g id="LineCollection_3">
    <path clip-path="url(#pfbdca92d3c)" d="M 211.575805 492.819075 
L 217.183065 492.819075 
" style="fill:none;stroke:#000000;stroke-width:1.5;"/>
   </g>
   <g id="LineCollection_4">
    <path clip-path="url(#pfbdca92d3c)" d="M 213.337585 492.819075 
L 215.30241 492.819075 
" style="fill:none;stroke:#000000;stroke-width:3;"/>
   </g>
   <g id="LineCollection_5">
    <path clip-path="url(#pfbdca92d3c)" d="M 392.236655 479.834587 
L 411.38285 479.834587 
" style="fill:none;stroke:#000000;stroke-width:1.5;"/>
   </g>
   <g id="LineCollection_6">
    <path clip-path="url(#pfbdca92d3c)" d="M 398.877924 479.834587 
L 405.557392 479.834587 
" style="fill:none;stroke:#000000;stroke-width:3;"/>
   </g>
   <g id="LineCollection_7">
    <path clip-path="url(#pfbdca92d3c)" d="M 290.639818 466.8501 
L 305.649427 466.8501 
" style="fill:none;stroke:#000000;stroke-width:1.5;"/>
   </g>
   <g id="LineCollection_8">
    <path clip-path="url(#pfbdca92d3c)" d="M 295.491079 466.8501 
L 300.957592 466.8501 
" style="fill:none;stroke:#000000;stroke-width:3;"/>
   </g>
   <g id="LineCollection_9">
    <path clip-path="url(#pfbdca92d3c)" d="M 280.232896 453.865612 
L 290.151318 453.865612 
" style="fill:none;stroke:#000000;stroke-width:1.5;"/>
   </g>
   <g id="LineCollection_10">
    <path clip-path="url(#pfbdca92d3c)" d="M 283.394124 453.865612 
L 286.932899 453.865612 
" style="fill:none;stroke:#000000;stroke-width:3;"/>
   </g>
   <g id="LineCollection_11">
    <path clip-path="url(#pfbdca92d3c)" d="M 197.989443 440.881125 
L 210.182256 440.881125 
" style="fill:none;stroke:#000000;stroke-width:1.5;"/>
   </g>
   <g id="LineCollection_12">
    <path clip-path="url(#pfbdca92d3c)" d="M 201.66104 440.881125 
L 206.054671 440.881125 
" style="fill:none;stroke:#000000;stroke-width:3;"/>
   </g>
   <g id="LineCollection_13">
    <path clip-path="url(#pfbdca92d3c)" d="M 192.930111 427.896637 
L 206.663924 427.896637 
" style="fill:none;stroke:#000000;stroke-width:1.5;"/>
   </g>
   <g id="LineCollection_14">
    <path clip-path="url(#pfbdca92d3c)" d="M 197.394283 427.896637 
L 202.27928 427.896637 
" style="fill:none;stroke:#000000;stroke-width:3;"/>
   </g>
   <g id="LineCollection_15">
    <path clip-path="url(#pfbdca92d3c)" d="M 219.079197 414.912149 
L 238.733523 414.912149 
" style="fill:none;stroke:#000000;stroke-width:1.5;"/>
   </g>
   <g id="LineCollection_16">
    <path clip-path="url(#pfbdca92d3c)" d="M 225.092071 414.912149 
L 232.225694 414.912149 
" style="fill:none;stroke:#000000;stroke-width:3;"/>
   </g>
   <g id="LineCollection_17">
    <path clip-path="url(#pfbdca92d3c)" d="M 202.713647 401.927662 
L 220.821593 401.927662 
" style="fill:none;stroke:#000000;stroke-width:1.5;"/>
   </g>
   <g id="LineCollection_18">
    <path clip-path="url(#pfbdca92d3c)" d="M 208.706444 401.927662 
L 215.178122 401.927662 
" style="fill:none;stroke:#000000;stroke-width:3;"/>
   </g>
   <g id="LineCollection_19">
    <path clip-path="url(#pfbdca92d3c)" d="M 239.313959 388.943174 
L 250.061842 388.943174 
" style="fill:none;stroke:#000000;stroke-width:1.5;"/>
   </g>
   <g id="LineCollection_20">
    <path clip-path="url(#pfbdca92d3c)" d="M 242.480987 388.943174 
L 246.402543 388.943174 
" style="fill:none;stroke:#000000;stroke-width:3;"/>
   </g>
   <g id="LineCollection_21">
    <path clip-path="url(#pfbdca92d3c)" d="M 196.449234 375.958687 
L 203.345765 375.958687 
" style="fill:none;stroke:#000000;stroke-width:1.5;"/>
   </g>
   <g id="LineCollection_22">
    <path clip-path="url(#pfbdca92d3c)" d="M 198.716856 375.958687 
L 201.195748 375.958687 
" style="fill:none;stroke:#000000;stroke-width:3;"/>
   </g>
   <g id="LineCollection_23">
    <path clip-path="url(#pfbdca92d3c)" d="M 59.04465 362.974199 
L 75.556666 362.974199 
" style="fill:none;stroke:#000000;stroke-width:1.5;"/>
   </g>
   <g id="LineCollection_24">
    <path clip-path="url(#pfbdca92d3c)" d="M 64.309922 362.974199 
L 70.297911 362.974199 
" style="fill:none;stroke:#000000;stroke-width:3;"/>
   </g>
   <g id="LineCollection_25">
    <path clip-path="url(#pfbdca92d3c)" d="M 209.29857 349.989712 
L 213.75175 349.989712 
" style="fill:none;stroke:#000000;stroke-width:1.5;"/>
   </g>
   <g id="LineCollection_26">
    <path clip-path="url(#pfbdca92d3c)" d="M 210.72573 349.989712 
L 212.349356 349.989712 
" style="fill:none;stroke:#000000;stroke-width:3;"/>
   </g>
   <g id="LineCollection_27">
    <path clip-path="url(#pfbdca92d3c)" d="M 238.285191 337.005224 
L 258.763315 337.005224 
" style="fill:none;stroke:#000000;stroke-width:1.5;"/>
   </g>
   <g id="LineCollection_28">
    <path clip-path="url(#pfbdca92d3c)" d="M 245.018985 337.005224 
L 252.429281 337.005224 
" style="fill:none;stroke:#000000;stroke-width:3;"/>
   </g>
   <g id="LineCollection_29">
    <path clip-path="url(#pfbdca92d3c)" d="M 169.89217 324.020737 
L 180.237882 324.020737 
" style="fill:none;stroke:#000000;stroke-width:1.5;"/>
   </g>
   <g id="LineCollection_30">
    <path clip-path="url(#pfbdca92d3c)" d="M 173.158133 324.020737 
L 176.765841 324.020737 
" style="fill:none;stroke:#000000;stroke-width:3;"/>
   </g>
   <g id="LineCollection_31">
    <path clip-path="url(#pfbdca92d3c)" d="M 213.893371 311.036249 
L 231.154783 311.036249 
" style="fill:none;stroke:#000000;stroke-width:1.5;"/>
   </g>
   <g id="LineCollection_32">
    <path clip-path="url(#pfbdca92d3c)" d="M 219.411665 311.036249 
L 225.637789 311.036249 
" style="fill:none;stroke:#000000;stroke-width:3;"/>
   </g>
   <g id="LineCollection_33">
    <path clip-path="url(#pfbdca92d3c)" d="M 213.990748 298.051761 
L 224.009281 298.051761 
" style="fill:none;stroke:#000000;stroke-width:1.5;"/>
   </g>
   <g id="LineCollection_34">
    <path clip-path="url(#pfbdca92d3c)" d="M 217.394703 298.051761 
L 220.992513 298.051761 
" style="fill:none;stroke:#000000;stroke-width:3;"/>
   </g>
   <g id="LineCollection_35">
    <path clip-path="url(#pfbdca92d3c)" d="M 212.93335 285.067274 
L 221.90822 285.067274 
" style="fill:none;stroke:#000000;stroke-width:1.5;"/>
   </g>
   <g id="LineCollection_36">
    <path clip-path="url(#pfbdca92d3c)" d="M 215.661487 285.067274 
L 218.801243 285.067274 
" style="fill:none;stroke:#000000;stroke-width:3;"/>
   </g>
   <g id="LineCollection_37">
    <path clip-path="url(#pfbdca92d3c)" d="M 146.392803 272.082786 
L 167.654262 272.082786 
" style="fill:none;stroke:#000000;stroke-width:1.5;"/>
   </g>
   <g id="LineCollection_38">
    <path clip-path="url(#pfbdca92d3c)" d="M 152.736721 272.082786 
L 160.614728 272.082786 
" style="fill:none;stroke:#000000;stroke-width:3;"/>
   </g>
   <g id="LineCollection_39">
    <path clip-path="url(#pfbdca92d3c)" d="M 105.163215 259.098299 
L 130.03826 259.098299 
" style="fill:none;stroke:#000000;stroke-width:1.5;"/>
   </g>
   <g id="LineCollection_40">
    <path clip-path="url(#pfbdca92d3c)" d="M 112.667237 259.098299 
L 121.442701 259.098299 
" style="fill:none;stroke:#000000;stroke-width:3;"/>
   </g>
   <g id="LineCollection_41">
    <path clip-path="url(#pfbdca92d3c)" d="M 174.90908 246.113811 
L 189.988609 246.113811 
" style="fill:none;stroke:#000000;stroke-width:1.5;"/>
   </g>
   <g id="LineCollection_42">
    <path clip-path="url(#pfbdca92d3c)" d="M 179.48515 246.113811 
L 184.903358 246.113811 
" style="fill:none;stroke:#000000;stroke-width:3;"/>
   </g>
   <g id="LineCollection_43">
    <path clip-path="url(#pfbdca92d3c)" d="M 191.304485 233.129324 
L 200.974997 233.129324 
" style="fill:none;stroke:#000000;stroke-width:1.5;"/>
   </g>
   <g id="LineCollection_44">
    <path clip-path="url(#pfbdca92d3c)" d="M 194.367224 233.129324 
L 197.806688 233.129324 
" style="fill:none;stroke:#000000;stroke-width:3;"/>
   </g>
   <g id="LineCollection_45">
    <path clip-path="url(#pfbdca92d3c)" d="M 249.642635 220.144836 
L 266.661555 220.144836 
" style="fill:none;stroke:#000000;stroke-width:1.5;"/>
   </g>
   <g id="LineCollection_46">
    <path clip-path="url(#pfbdca92d3c)" d="M 254.921852 220.144836 
L 260.935027 220.144836 
" style="fill:none;stroke:#000000;stroke-width:3;"/>
   </g>
   <g id="LineCollection_47">
    <path clip-path="url(#pfbdca92d3c)" d="M 108.605262 207.160349 
L 126.172865 207.160349 
" style="fill:none;stroke:#000000;stroke-width:1.5;"/>
   </g>
   <g id="LineCollection_48">
    <path clip-path="url(#pfbdca92d3c)" d="M 114.249772 207.160349 
L 120.559492 207.160349 
" style="fill:none;stroke:#000000;stroke-width:3;"/>
   </g>
   <g id="LineCollection_49">
    <path clip-path="url(#pfbdca92d3c)" d="M 110.571189 194.175861 
L 128.294958 194.175861 
" style="fill:none;stroke:#000000;stroke-width:1.5;"/>
   </g>
   <g id="LineCollection_50">
    <path clip-path="url(#pfbdca92d3c)" d="M 115.818435 194.175861 
L 122.363974 194.175861 
" style="fill:none;stroke:#000000;stroke-width:3;"/>
   </g>
   <g id="LineCollection_51">
    <path clip-path="url(#pfbdca92d3c)" d="M 285.432285 181.191374 
L 314.222902 181.191374 
" style="fill:none;stroke:#000000;stroke-width:1.5;"/>
   </g>
   <g id="LineCollection_52">
    <path clip-path="url(#pfbdca92d3c)" d="M 294.777981 181.191374 
L 305.363702 181.191374 
" style="fill:none;stroke:#000000;stroke-width:3;"/>
   </g>
   <g id="LineCollection_53">
    <path clip-path="url(#pfbdca92d3c)" d="M 263.624479 168.206886 
L 283.909934 168.206886 
" style="fill:none;stroke:#000000;stroke-width:1.5;"/>
   </g>
   <g id="LineCollection_54">
    <path clip-path="url(#pfbdca92d3c)" d="M 270.000089 168.206886 
L 277.306388 168.206886 
" style="fill:none;stroke:#000000;stroke-width:3;"/>
   </g>
   <g id="LineCollection_55">
    <path clip-path="url(#pfbdca92d3c)" d="M 264.604737 155.222398 
L 283.375308 155.222398 
" style="fill:none;stroke:#000000;stroke-width:1.5;"/>
   </g>
   <g id="LineCollection_56">
    <path clip-path="url(#pfbdca92d3c)" d="M 270.935832 155.222398 
L 277.736689 155.222398 
" style="fill:none;stroke:#000000;stroke-width:3;"/>
   </g>
   <g id="LineCollection_57">
    <path clip-path="url(#pfbdca92d3c)" d="M 212.020667 142.237911 
L 226.469655 142.237911 
" style="fill:none;stroke:#000000;stroke-width:1.5;"/>
   </g>
   <g id="LineCollection_58">
    <path clip-path="url(#pfbdca92d3c)" d="M 216.882354 142.237911 
L 222.059449 142.237911 
" style="fill:none;stroke:#000000;stroke-width:3;"/>
   </g>
   <g id="LineCollection_59">
    <path clip-path="url(#pfbdca92d3c)" d="M 226.002682 129.253423 
L 241.169293 129.253423 
" style="fill:none;stroke:#000000;stroke-width:1.5;"/>
   </g>
   <g id="LineCollection_60">
    <path clip-path="url(#pfbdca92d3c)" d="M 231.225823 129.253423 
L 236.630285 129.253423 
" style="fill:none;stroke:#000000;stroke-width:3;"/>
   </g>
   <g id="LineCollection_61">
    <path clip-path="url(#pfbdca92d3c)" d="M 216.408821 116.268936 
L 238.623966 116.268936 
" style="fill:none;stroke:#000000;stroke-width:1.5;"/>
   </g>
   <g id="LineCollection_62">
    <path clip-path="url(#pfbdca92d3c)" d="M 223.67747 116.268936 
L 231.793004 116.268936 
" style="fill:none;stroke:#000000;stroke-width:3;"/>
   </g>
   <g id="LineCollection_63">
    <path clip-path="url(#pfbdca92d3c)" d="M 224.073802 103.284448 
L 234.288479 103.284448 
" style="fill:none;stroke:#000000;stroke-width:1.5;"/>
   </g>
   <g id="LineCollection_64">
    <path clip-path="url(#pfbdca92d3c)" d="M 227.186036 103.284448 
L 230.830574 103.284448 
" style="fill:none;stroke:#000000;stroke-width:3;"/>
   </g>
   <g id="LineCollection_65">
    <path clip-path="url(#pfbdca92d3c)" d="M 199.358019 90.299961 
L 212.255297 90.299961 
" style="fill:none;stroke:#000000;stroke-width:1.5;"/>
   </g>
   <g id="LineCollection_66">
    <path clip-path="url(#pfbdca92d3c)" d="M 203.38286 90.299961 
L 208.15538 90.299961 
" style="fill:none;stroke:#000000;stroke-width:3;"/>
   </g>
   <g id="LineCollection_67">
    <path clip-path="url(#pfbdca92d3c)" d="M 206.4531 77.315473 
L 221.349286 77.315473 
" style="fill:none;stroke:#000000;stroke-width:1.5;"/>
   </g>
   <g id="LineCollection_68">
    <path clip-path="url(#pfbdca92d3c)" d="M 211.346911 77.315473 
L 216.701995 77.315473 
" style="fill:none;stroke:#000000;stroke-width:3;"/>
   </g>
   <g id="LineCollection_69">
    <path clip-path="url(#pfbdca92d3c)" d="M 198.779044 64.330986 
L 205.971596 64.330986 
" style="fill:none;stroke:#000000;stroke-width:1.5;"/>
   </g>
   <g id="LineCollection_70">
    <path clip-path="url(#pfbdca92d3c)" d="M 201.210448 64.330986 
L 203.831371 64.330986 
" style="fill:none;stroke:#000000;stroke-width:3;"/>
   </g>
   <g id="LineCollection_71">
    <path clip-path="url(#pfbdca92d3c)" d="M 193.293197 51.346498 
L 213.326177 51.346498 
" style="fill:none;stroke:#000000;stroke-width:1.5;"/>
   </g>
   <g id="LineCollection_72">
    <path clip-path="url(#pfbdca92d3c)" d="M 199.511092 51.346498 
L 206.737699 51.346498 
" style="fill:none;stroke:#000000;stroke-width:3;"/>
   </g>
   <g id="LineCollection_73">
    <path clip-path="url(#pfbdca92d3c)" d="M 199.349295 38.362011 
L 207.503106 38.362011 
" style="fill:none;stroke:#000000;stroke-width:1.5;"/>
   </g>
   <g id="LineCollection_74">
    <path clip-path="url(#pfbdca92d3c)" d="M 201.867151 38.362011 
L 204.80199 38.362011 
" style="fill:none;stroke:#000000;stroke-width:3;"/>
   </g>
   <g id="line2d_25">
    <defs>
     <path d="M 0 2.25 
C 0.596707 2.25 1.169055 2.012926 1.59099 1.59099 
C 2.012926 1.169055 2.25 0.596707 2.25 0 
C 2.25 -0.596707 2.012926 -1.169055 1.59099 -1.59099 
C 1.169055 -2.012926 0.596707 -2.25 0 -2.25 
C -0.596707 -2.25 -1.169055 -2.012926 -1.59099 -1.59099 
C -2.012926 -1.169055 -2.25 -0.596707 -2.25 0 
C -2.25 0.596707 -2.012926 1.169055 -1.59099 1.59099 
C -1.169055 2.012926 -0.596707 2.25 0 2.25 
z
" id="m711d3c641e" style="stroke:#000000;"/>
    </defs>
    <g clip-path="url(#pfbdca92d3c)">
     <use style="fill:#eaeaf2;stroke:#000000;" x="161.873117" xlink:href="#m711d3c641e" y="505.803562"/>
    </g>
   </g>
   <g id="line2d_26">
    <g clip-path="url(#pfbdca92d3c)">
     <use style="fill:#eaeaf2;stroke:#000000;" x="214.321362" xlink:href="#m711d3c641e" y="492.819075"/>
    </g>
   </g>
   <g id="line2d_27">
    <g clip-path="url(#pfbdca92d3c)">
     <use style="fill:#eaeaf2;stroke:#000000;" x="402.175287" xlink:href="#m711d3c641e" y="479.834587"/>
    </g>
   </g>
   <g id="line2d_28">
    <g clip-path="url(#pfbdca92d3c)">
     <use style="fill:#eaeaf2;stroke:#000000;" x="298.192021" xlink:href="#m711d3c641e" y="466.8501"/>
    </g>
   </g>
   <g id="line2d_29">
    <g clip-path="url(#pfbdca92d3c)">
     <use style="fill:#eaeaf2;stroke:#000000;" x="285.19142" xlink:href="#m711d3c641e" y="453.865612"/>
    </g>
   </g>
   <g id="line2d_30">
    <g clip-path="url(#pfbdca92d3c)">
     <use style="fill:#eaeaf2;stroke:#000000;" x="203.912062" xlink:href="#m711d3c641e" y="440.881125"/>
    </g>
   </g>
   <g id="line2d_31">
    <g clip-path="url(#pfbdca92d3c)">
     <use style="fill:#eaeaf2;stroke:#000000;" x="199.823699" xlink:href="#m711d3c641e" y="427.896637"/>
    </g>
   </g>
   <g id="line2d_32">
    <g clip-path="url(#pfbdca92d3c)">
     <use style="fill:#eaeaf2;stroke:#000000;" x="228.659206" xlink:href="#m711d3c641e" y="414.912149"/>
    </g>
   </g>
   <g id="line2d_33">
    <g clip-path="url(#pfbdca92d3c)">
     <use style="fill:#eaeaf2;stroke:#000000;" x="211.948612" xlink:href="#m711d3c641e" y="401.927662"/>
    </g>
   </g>
   <g id="line2d_34">
    <g clip-path="url(#pfbdca92d3c)">
     <use style="fill:#eaeaf2;stroke:#000000;" x="244.454043" xlink:href="#m711d3c641e" y="388.943174"/>
    </g>
   </g>
   <g id="line2d_35">
    <g clip-path="url(#pfbdca92d3c)">
     <use style="fill:#eaeaf2;stroke:#000000;" x="199.925568" xlink:href="#m711d3c641e" y="375.958687"/>
    </g>
   </g>
   <g id="line2d_36">
    <g clip-path="url(#pfbdca92d3c)">
     <use style="fill:#eaeaf2;stroke:#000000;" x="67.318938" xlink:href="#m711d3c641e" y="362.974199"/>
    </g>
   </g>
   <g id="line2d_37">
    <g clip-path="url(#pfbdca92d3c)">
     <use style="fill:#eaeaf2;stroke:#000000;" x="211.533202" xlink:href="#m711d3c641e" y="349.989712"/>
    </g>
   </g>
   <g id="line2d_38">
    <g clip-path="url(#pfbdca92d3c)">
     <use style="fill:#eaeaf2;stroke:#000000;" x="248.819484" xlink:href="#m711d3c641e" y="337.005224"/>
    </g>
   </g>
   <g id="line2d_39">
    <g clip-path="url(#pfbdca92d3c)">
     <use style="fill:#eaeaf2;stroke:#000000;" x="174.970707" xlink:href="#m711d3c641e" y="324.020737"/>
    </g>
   </g>
   <g id="line2d_40">
    <g clip-path="url(#pfbdca92d3c)">
     <use style="fill:#eaeaf2;stroke:#000000;" x="222.60212" xlink:href="#m711d3c641e" y="311.036249"/>
    </g>
   </g>
   <g id="line2d_41">
    <g clip-path="url(#pfbdca92d3c)">
     <use style="fill:#eaeaf2;stroke:#000000;" x="219.192733" xlink:href="#m711d3c641e" y="298.051761"/>
    </g>
   </g>
   <g id="line2d_42">
    <g clip-path="url(#pfbdca92d3c)">
     <use style="fill:#eaeaf2;stroke:#000000;" x="217.249325" xlink:href="#m711d3c641e" y="285.067274"/>
    </g>
   </g>
   <g id="line2d_43">
    <g clip-path="url(#pfbdca92d3c)">
     <use style="fill:#eaeaf2;stroke:#000000;" x="156.587189" xlink:href="#m711d3c641e" y="272.082786"/>
    </g>
   </g>
   <g id="line2d_44">
    <g clip-path="url(#pfbdca92d3c)">
     <use style="fill:#eaeaf2;stroke:#000000;" x="117.088781" xlink:href="#m711d3c641e" y="259.098299"/>
    </g>
   </g>
   <g id="line2d_45">
    <g clip-path="url(#pfbdca92d3c)">
     <use style="fill:#eaeaf2;stroke:#000000;" x="182.18953" xlink:href="#m711d3c641e" y="246.113811"/>
    </g>
   </g>
   <g id="line2d_46">
    <g clip-path="url(#pfbdca92d3c)">
     <use style="fill:#eaeaf2;stroke:#000000;" x="196.102766" xlink:href="#m711d3c641e" y="233.129324"/>
    </g>
   </g>
   <g id="line2d_47">
    <g clip-path="url(#pfbdca92d3c)">
     <use style="fill:#eaeaf2;stroke:#000000;" x="257.955347" xlink:href="#m711d3c641e" y="220.144836"/>
    </g>
   </g>
   <g id="line2d_48">
    <g clip-path="url(#pfbdca92d3c)">
     <use style="fill:#eaeaf2;stroke:#000000;" x="117.355649" xlink:href="#m711d3c641e" y="207.160349"/>
    </g>
   </g>
   <g id="line2d_49">
    <g clip-path="url(#pfbdca92d3c)">
     <use style="fill:#eaeaf2;stroke:#000000;" x="119.075678" xlink:href="#m711d3c641e" y="194.175861"/>
    </g>
   </g>
   <g id="line2d_50">
    <g clip-path="url(#pfbdca92d3c)">
     <use style="fill:#eaeaf2;stroke:#000000;" x="300.224012" xlink:href="#m711d3c641e" y="181.191374"/>
    </g>
   </g>
   <g id="line2d_51">
    <g clip-path="url(#pfbdca92d3c)">
     <use style="fill:#eaeaf2;stroke:#000000;" x="273.687419" xlink:href="#m711d3c641e" y="168.206886"/>
    </g>
   </g>
   <g id="line2d_52">
    <g clip-path="url(#pfbdca92d3c)">
     <use style="fill:#eaeaf2;stroke:#000000;" x="274.387189" xlink:href="#m711d3c641e" y="155.222398"/>
    </g>
   </g>
   <g id="line2d_53">
    <g clip-path="url(#pfbdca92d3c)">
     <use style="fill:#eaeaf2;stroke:#000000;" x="219.555849" xlink:href="#m711d3c641e" y="142.237911"/>
    </g>
   </g>
   <g id="line2d_54">
    <g clip-path="url(#pfbdca92d3c)">
     <use style="fill:#eaeaf2;stroke:#000000;" x="233.951305" xlink:href="#m711d3c641e" y="129.253423"/>
    </g>
   </g>
   <g id="line2d_55">
    <g clip-path="url(#pfbdca92d3c)">
     <use style="fill:#eaeaf2;stroke:#000000;" x="227.822904" xlink:href="#m711d3c641e" y="116.268936"/>
    </g>
   </g>
   <g id="line2d_56">
    <g clip-path="url(#pfbdca92d3c)">
     <use style="fill:#eaeaf2;stroke:#000000;" x="228.992063" xlink:href="#m711d3c641e" y="103.284448"/>
    </g>
   </g>
   <g id="line2d_57">
    <g clip-path="url(#pfbdca92d3c)">
     <use style="fill:#eaeaf2;stroke:#000000;" x="205.837693" xlink:href="#m711d3c641e" y="90.299961"/>
    </g>
   </g>
   <g id="line2d_58">
    <g clip-path="url(#pfbdca92d3c)">
     <use style="fill:#eaeaf2;stroke:#000000;" x="214.042856" xlink:href="#m711d3c641e" y="77.315473"/>
    </g>
   </g>
   <g id="line2d_59">
    <g clip-path="url(#pfbdca92d3c)">
     <use style="fill:#eaeaf2;stroke:#000000;" x="202.522882" xlink:href="#m711d3c641e" y="64.330986"/>
    </g>
   </g>
   <g id="line2d_60">
    <g clip-path="url(#pfbdca92d3c)">
     <use style="fill:#eaeaf2;stroke:#000000;" x="203.187041" xlink:href="#m711d3c641e" y="51.346498"/>
    </g>
   </g>
   <g id="line2d_61">
    <g clip-path="url(#pfbdca92d3c)">
     <use style="fill:#eaeaf2;stroke:#000000;" x="203.363365" xlink:href="#m711d3c641e" y="38.362011"/>
    </g>
   </g>
   <g id="patch_4">
    <path d="M 41.42774 512.88601 
L 428.99976 512.88601 
" style="fill:none;stroke:#000000;stroke-linecap:square;stroke-linejoin:miter;stroke-width:0.8;"/>
   </g>
   <g id="patch_5">
    <path d="M 41.42774 24.197115 
L 428.99976 24.197115 
" style="fill:none;stroke:#000000;stroke-linecap:square;stroke-linejoin:miter;stroke-width:0.8;"/>
   </g>
   <g id="text_47">
    <!-- Difference -->
    <g transform="translate(183.51375 18.197115)scale(0.2 -0.2)">
     <defs>
      <path d="M 9.421875 54.6875 
L 18.40625 54.6875 
L 18.40625 0 
L 9.421875 0 
z
M 9.421875 75.984375 
L 18.40625 75.984375 
L 18.40625 64.59375 
L 9.421875 64.59375 
z
" id="DejaVuSans-105"/>
      <path d="M 37.109375 75.984375 
L 37.109375 68.5 
L 28.515625 68.5 
Q 23.6875 68.5 21.796875 66.546875 
Q 19.921875 64.59375 19.921875 59.515625 
L 19.921875 54.6875 
L 34.71875 54.6875 
L 34.71875 47.703125 
L 19.921875 47.703125 
L 19.921875 0 
L 10.890625 0 
L 10.890625 47.703125 
L 2.296875 47.703125 
L 2.296875 54.6875 
L 10.890625 54.6875 
L 10.890625 58.5 
Q 10.890625 67.625 15.140625 71.796875 
Q 19.390625 75.984375 28.609375 75.984375 
z
" id="DejaVuSans-102"/>
      <path d="M 56.203125 29.59375 
L 56.203125 25.203125 
L 14.890625 25.203125 
Q 15.484375 15.921875 20.484375 11.0625 
Q 25.484375 6.203125 34.421875 6.203125 
Q 39.59375 6.203125 44.453125 7.46875 
Q 49.3125 8.734375 54.109375 11.28125 
L 54.109375 2.78125 
Q 49.265625 0.734375 44.1875 -0.34375 
Q 39.109375 -1.421875 33.890625 -1.421875 
Q 20.796875 -1.421875 13.15625 6.1875 
Q 5.515625 13.8125 5.515625 26.8125 
Q 5.515625 40.234375 12.765625 48.109375 
Q 20.015625 56 32.328125 56 
Q 43.359375 56 49.78125 48.890625 
Q 56.203125 41.796875 56.203125 29.59375 
z
M 47.21875 32.234375 
Q 47.125 39.59375 43.09375 43.984375 
Q 39.0625 48.390625 32.421875 48.390625 
Q 24.90625 48.390625 20.390625 44.140625 
Q 15.875 39.890625 15.1875 32.171875 
z
" id="DejaVuSans-101"/>
      <path d="M 41.109375 46.296875 
Q 39.59375 47.171875 37.8125 47.578125 
Q 36.03125 48 33.890625 48 
Q 26.265625 48 22.1875 43.046875 
Q 18.109375 38.09375 18.109375 28.8125 
L 18.109375 0 
L 9.078125 0 
L 9.078125 54.6875 
L 18.109375 54.6875 
L 18.109375 46.1875 
Q 20.953125 51.171875 25.484375 53.578125 
Q 30.03125 56 36.53125 56 
Q 37.453125 56 38.578125 55.875 
Q 39.703125 55.765625 41.0625 55.515625 
z
" id="DejaVuSans-114"/>
      <path d="M 54.890625 33.015625 
L 54.890625 0 
L 45.90625 0 
L 45.90625 32.71875 
Q 45.90625 40.484375 42.875 44.328125 
Q 39.84375 48.1875 33.796875 48.1875 
Q 26.515625 48.1875 22.3125 43.546875 
Q 18.109375 38.921875 18.109375 30.90625 
L 18.109375 0 
L 9.078125 0 
L 9.078125 54.6875 
L 18.109375 54.6875 
L 18.109375 46.1875 
Q 21.34375 51.125 25.703125 53.5625 
Q 30.078125 56 35.796875 56 
Q 45.21875 56 50.046875 50.171875 
Q 54.890625 44.34375 54.890625 33.015625 
z
" id="DejaVuSans-110"/>
      <path d="M 48.78125 52.59375 
L 48.78125 44.1875 
Q 44.96875 46.296875 41.140625 47.34375 
Q 37.3125 48.390625 33.40625 48.390625 
Q 24.65625 48.390625 19.8125 42.84375 
Q 14.984375 37.3125 14.984375 27.296875 
Q 14.984375 17.28125 19.8125 11.734375 
Q 24.65625 6.203125 33.40625 6.203125 
Q 37.3125 6.203125 41.140625 7.25 
Q 44.96875 8.296875 48.78125 10.40625 
L 48.78125 2.09375 
Q 45.015625 0.34375 40.984375 -0.53125 
Q 36.96875 -1.421875 32.421875 -1.421875 
Q 20.0625 -1.421875 12.78125 6.34375 
Q 5.515625 14.109375 5.515625 27.296875 
Q 5.515625 40.671875 12.859375 48.328125 
Q 20.21875 56 33.015625 56 
Q 37.15625 56 41.109375 55.140625 
Q 45.0625 54.296875 48.78125 52.59375 
z
" id="DejaVuSans-99"/>
     </defs>
     <use xlink:href="#DejaVuSans-68"/>
     <use x="77.001953" xlink:href="#DejaVuSans-105"/>
     <use x="104.785156" xlink:href="#DejaVuSans-102"/>
     <use x="139.990234" xlink:href="#DejaVuSans-102"/>
     <use x="175.195312" xlink:href="#DejaVuSans-101"/>
     <use x="236.71875" xlink:href="#DejaVuSans-114"/>
     <use x="275.582031" xlink:href="#DejaVuSans-101"/>
     <use x="337.105469" xlink:href="#DejaVuSans-110"/>
     <use x="400.484375" xlink:href="#DejaVuSans-99"/>
     <use x="455.464844" xlink:href="#DejaVuSans-101"/>
    </g>
   </g>
  </g>
 </g>
 <defs>
  <clipPath id="pfbdca92d3c">
   <rect height="488.688895" width="387.57202" x="41.42774" y="24.197115"/>
  </clipPath>
 </defs>
</svg>
